%TF.GenerationSoftware,KiCad,Pcbnew,(6.0.10)*%
%TF.CreationDate,2023-01-16T11:30:22+01:00*%
%TF.ProjectId,BatteryDischargerV1,42617474-6572-4794-9469-736368617267,rev?*%
%TF.SameCoordinates,Original*%
%TF.FileFunction,Legend,Top*%
%TF.FilePolarity,Positive*%
%FSLAX46Y46*%
G04 Gerber Fmt 4.6, Leading zero omitted, Abs format (unit mm)*
G04 Created by KiCad (PCBNEW (6.0.10)) date 2023-01-16 11:30:22*
%MOMM*%
%LPD*%
G01*
G04 APERTURE LIST*
%ADD10C,0.150000*%
%ADD11C,0.120000*%
%ADD12C,0.300000*%
%ADD13C,0.200000*%
G04 APERTURE END LIST*
D10*
X153488095Y-161250000D02*
X153392857Y-161202380D01*
X153250000Y-161202380D01*
X153107142Y-161250000D01*
X153011904Y-161345238D01*
X152964285Y-161440476D01*
X152916666Y-161630952D01*
X152916666Y-161773809D01*
X152964285Y-161964285D01*
X153011904Y-162059523D01*
X153107142Y-162154761D01*
X153250000Y-162202380D01*
X153345238Y-162202380D01*
X153488095Y-162154761D01*
X153535714Y-162107142D01*
X153535714Y-161773809D01*
X153345238Y-161773809D01*
X153964285Y-162202380D02*
X153964285Y-161202380D01*
X154535714Y-162202380D01*
X154535714Y-161202380D01*
X155011904Y-162202380D02*
X155011904Y-161202380D01*
X155250000Y-161202380D01*
X155392857Y-161250000D01*
X155488095Y-161345238D01*
X155535714Y-161440476D01*
X155583333Y-161630952D01*
X155583333Y-161773809D01*
X155535714Y-161964285D01*
X155488095Y-162059523D01*
X155392857Y-162154761D01*
X155250000Y-162202380D01*
X155011904Y-162202380D01*
X154583333Y-167452380D02*
X154250000Y-166976190D01*
X154011904Y-167452380D02*
X154011904Y-166452380D01*
X154392857Y-166452380D01*
X154488095Y-166500000D01*
X154535714Y-166547619D01*
X154583333Y-166642857D01*
X154583333Y-166785714D01*
X154535714Y-166880952D01*
X154488095Y-166928571D01*
X154392857Y-166976190D01*
X154011904Y-166976190D01*
X154916666Y-166452380D02*
X155583333Y-167452380D01*
X155583333Y-166452380D02*
X154916666Y-167452380D01*
X153988095Y-163952380D02*
X154559523Y-163952380D01*
X154273809Y-164952380D02*
X154273809Y-163952380D01*
X154797619Y-163952380D02*
X155464285Y-164952380D01*
X155464285Y-163952380D02*
X154797619Y-164952380D01*
%TO.C,U1*%
X109875000Y-154125000D02*
X109875000Y-154450000D01*
X109875000Y-161150000D02*
X111300000Y-161150000D01*
X109875000Y-154125000D02*
X109550000Y-154125000D01*
X102625000Y-154125000D02*
X102950000Y-154125000D01*
X109875000Y-161375000D02*
X109550000Y-161375000D01*
X102625000Y-161375000D02*
X102625000Y-161050000D01*
X102625000Y-161375000D02*
X102950000Y-161375000D01*
X102625000Y-154125000D02*
X102625000Y-154450000D01*
X109875000Y-161375000D02*
X109875000Y-161150000D01*
D11*
%TO.C,R4*%
X103737258Y-166272500D02*
X103262742Y-166272500D01*
X103737258Y-165227500D02*
X103262742Y-165227500D01*
%TO.C,C2*%
X96640580Y-151240000D02*
X96359420Y-151240000D01*
X96640580Y-152260000D02*
X96359420Y-152260000D01*
%TO.C,R15*%
X75727500Y-132262742D02*
X75727500Y-132737258D01*
X76772500Y-132262742D02*
X76772500Y-132737258D01*
%TO.C,SW2*%
X82900000Y-175650000D02*
X70600000Y-175650000D01*
X70600000Y-170470000D02*
X70600000Y-168530000D01*
X70600000Y-163350000D02*
X82900000Y-163350000D01*
X82900000Y-173530000D02*
X82900000Y-175650000D01*
X82900000Y-163350000D02*
X82900000Y-165470000D01*
X70600000Y-165470000D02*
X70600000Y-163350000D01*
X82900000Y-168530000D02*
X82900000Y-170470000D01*
X70600000Y-175650000D02*
X70600000Y-173530000D01*
D12*
%TO.C,BT1*%
X72650000Y-36300000D02*
X70850000Y-36300000D01*
X72650000Y-99600000D02*
X70850000Y-99600000D01*
X71750000Y-100500000D02*
X71750000Y-98700000D01*
D13*
X82750000Y-107300000D02*
X60750000Y-107300000D01*
X60750000Y-107300000D02*
X60750000Y-28700000D01*
X60750000Y-28700000D02*
X82750000Y-28700000D01*
X82750000Y-28700000D02*
X82750000Y-107300000D01*
D11*
X73150000Y-36300000D02*
G75*
G03*
X73150000Y-36300000I-1400000J0D01*
G01*
X73150000Y-99600000D02*
G75*
G03*
X73150000Y-99600000I-1400000J0D01*
G01*
%TO.C,C7*%
X82461252Y-157360000D02*
X81038748Y-157360000D01*
X82461252Y-154640000D02*
X81038748Y-154640000D01*
D13*
%TO.C,F2*%
X116930000Y-109804000D02*
X113374000Y-109804000D01*
X111850000Y-131394000D02*
X111850000Y-113106000D01*
X110326000Y-134696000D02*
X106770000Y-134696000D01*
X110326000Y-109804000D02*
X106770000Y-109804000D01*
X116930000Y-134696000D02*
X116930000Y-109804000D01*
X106770000Y-134696000D02*
X106770000Y-109804000D01*
X113374000Y-134696000D02*
X116930000Y-134696000D01*
X113374000Y-127457000D02*
X110326000Y-127457000D01*
X110326000Y-127457000D02*
X110326000Y-117043000D01*
X110326000Y-117043000D02*
X113374000Y-117043000D01*
X113374000Y-117043000D02*
X113374000Y-127457000D01*
D11*
%TO.C,R9*%
X70987258Y-141522500D02*
X70512742Y-141522500D01*
X70987258Y-140477500D02*
X70512742Y-140477500D01*
%TO.C,LS1*%
X128579216Y-143250000D02*
G75*
G03*
X128579216Y-146249999I6400000J-1500000D01*
G01*
X141209216Y-144750000D02*
G75*
G03*
X141209216Y-144750000I-6230000J0D01*
G01*
%TO.C,Q2*%
X118130000Y-129350000D02*
X118130000Y-113460000D01*
X123250000Y-113460000D02*
X123250000Y-110920000D01*
X120710000Y-113460000D02*
X120710000Y-110920000D01*
X128370000Y-129350000D02*
X128370000Y-113460000D01*
X125790000Y-113460000D02*
X125790000Y-110920000D01*
X128370000Y-129350000D02*
X118130000Y-129350000D01*
X128370000Y-113460000D02*
X118130000Y-113460000D01*
D13*
%TO.C,F3*%
X88850000Y-131394000D02*
X88850000Y-113106000D01*
X90374000Y-134696000D02*
X93930000Y-134696000D01*
X83770000Y-134696000D02*
X83770000Y-109804000D01*
X87326000Y-109804000D02*
X83770000Y-109804000D01*
X87326000Y-134696000D02*
X83770000Y-134696000D01*
X93930000Y-134696000D02*
X93930000Y-109804000D01*
X93930000Y-109804000D02*
X90374000Y-109804000D01*
X90374000Y-127457000D02*
X87326000Y-127457000D01*
X87326000Y-127457000D02*
X87326000Y-117043000D01*
X87326000Y-117043000D02*
X90374000Y-117043000D01*
X90374000Y-117043000D02*
X90374000Y-127457000D01*
D11*
%TO.C,R16*%
X122772500Y-132262742D02*
X122772500Y-132737258D01*
X121727500Y-132262742D02*
X121727500Y-132737258D01*
%TO.C,R10*%
X70512742Y-139022500D02*
X70987258Y-139022500D01*
X70512742Y-137977500D02*
X70987258Y-137977500D01*
%TO.C,CD1*%
X125359420Y-170010000D02*
X125640580Y-170010000D01*
X125359420Y-168990000D02*
X125640580Y-168990000D01*
%TO.C,CD2*%
X87140580Y-169760000D02*
X86859420Y-169760000D01*
X87140580Y-168740000D02*
X86859420Y-168740000D01*
%TO.C,SW1*%
X141900000Y-173530000D02*
X141900000Y-175650000D01*
X129600000Y-170470000D02*
X129600000Y-168530000D01*
X141900000Y-168530000D02*
X141900000Y-170470000D01*
X141900000Y-163350000D02*
X141900000Y-165470000D01*
X129600000Y-175650000D02*
X129600000Y-173530000D01*
X141900000Y-175650000D02*
X129600000Y-175650000D01*
X129600000Y-165470000D02*
X129600000Y-163350000D01*
X129600000Y-163350000D02*
X141900000Y-163350000D01*
%TO.C,R7*%
X125737258Y-166477500D02*
X125262742Y-166477500D01*
X125737258Y-167522500D02*
X125262742Y-167522500D01*
%TO.C,Q3*%
X100250000Y-113460000D02*
X100250000Y-110920000D01*
X105370000Y-129350000D02*
X95130000Y-129350000D01*
X105370000Y-113460000D02*
X95130000Y-113460000D01*
X97710000Y-113460000D02*
X97710000Y-110920000D01*
X95130000Y-129350000D02*
X95130000Y-113460000D01*
X105370000Y-129350000D02*
X105370000Y-113460000D01*
X102790000Y-113460000D02*
X102790000Y-110920000D01*
%TO.C,R19*%
X100727500Y-132737258D02*
X100727500Y-132262742D01*
X101772500Y-132737258D02*
X101772500Y-132262742D01*
%TO.C,R8*%
X86762742Y-167522500D02*
X87237258Y-167522500D01*
X86762742Y-166477500D02*
X87237258Y-166477500D01*
%TO.C,Q1*%
X82370000Y-129330000D02*
X82370000Y-113440000D01*
X77250000Y-113440000D02*
X77250000Y-110900000D01*
X82370000Y-129330000D02*
X72130000Y-129330000D01*
X82370000Y-113440000D02*
X72130000Y-113440000D01*
X74710000Y-113440000D02*
X74710000Y-110900000D01*
X72130000Y-129330000D02*
X72130000Y-113440000D01*
X79790000Y-113440000D02*
X79790000Y-110900000D01*
%TO.C,C1*%
X114510000Y-158359420D02*
X114510000Y-158640580D01*
X113490000Y-158359420D02*
X113490000Y-158640580D01*
%TO.C,J1*%
X146017500Y-147950000D02*
X146017500Y-141010000D01*
X146017500Y-152050000D02*
X144707500Y-152050000D01*
X146017500Y-141010000D02*
X152517500Y-141010000D01*
X152517500Y-141010000D02*
X152517500Y-158990000D01*
X146017500Y-152050000D02*
X146017500Y-152050000D01*
X143317500Y-144420000D02*
X143317500Y-145420000D01*
X146017500Y-158990000D02*
X146017500Y-152050000D01*
X144707500Y-147950000D02*
X146017500Y-147950000D01*
X144317500Y-144920000D02*
X143317500Y-144420000D01*
X144707500Y-139710000D02*
X153827500Y-139710000D01*
X153827500Y-160290000D02*
X144707500Y-160290000D01*
X153827500Y-139710000D02*
X153827500Y-160290000D01*
X144707500Y-160290000D02*
X144707500Y-139710000D01*
X152517500Y-158990000D02*
X146017500Y-158990000D01*
X143317500Y-145420000D02*
X144317500Y-144920000D01*
%TO.C,R22*%
X145772500Y-132262742D02*
X145772500Y-132737258D01*
X144727500Y-132262742D02*
X144727500Y-132737258D01*
%TO.C,C6*%
X64961252Y-158360000D02*
X63538748Y-158360000D01*
X64961252Y-155640000D02*
X63538748Y-155640000D01*
%TO.C,R13*%
X78772500Y-132737258D02*
X78772500Y-132262742D01*
X77727500Y-132737258D02*
X77727500Y-132262742D01*
%TO.C,U3*%
X63750000Y-142940000D02*
X64550000Y-142940000D01*
X63750000Y-142940000D02*
X62950000Y-142940000D01*
X63750000Y-146060000D02*
X65550000Y-146060000D01*
X63750000Y-146060000D02*
X62950000Y-146060000D01*
D13*
%TO.C,F1*%
X64326000Y-109804000D02*
X60770000Y-109804000D01*
X70930000Y-134696000D02*
X70930000Y-109804000D01*
X67374000Y-134696000D02*
X70930000Y-134696000D01*
X64326000Y-134696000D02*
X60770000Y-134696000D01*
X60770000Y-134696000D02*
X60770000Y-109804000D01*
X70930000Y-109804000D02*
X67374000Y-109804000D01*
X65850000Y-131394000D02*
X65850000Y-113106000D01*
X67374000Y-127457000D02*
X64326000Y-127457000D01*
X64326000Y-127457000D02*
X64326000Y-117043000D01*
X64326000Y-117043000D02*
X67374000Y-117043000D01*
X67374000Y-117043000D02*
X67374000Y-127457000D01*
D12*
%TO.C,BT2*%
X118650000Y-99600000D02*
X116850000Y-99600000D01*
X117750000Y-100500000D02*
X117750000Y-98700000D01*
X118650000Y-36300000D02*
X116850000Y-36300000D01*
D13*
X128750000Y-107300000D02*
X106750000Y-107300000D01*
X106750000Y-107300000D02*
X106750000Y-28700000D01*
X106750000Y-28700000D02*
X128750000Y-28700000D01*
X128750000Y-28700000D02*
X128750000Y-107300000D01*
D11*
X119150000Y-99600000D02*
G75*
G03*
X119150000Y-99600000I-1400000J0D01*
G01*
X119150000Y-36300000D02*
G75*
G03*
X119150000Y-36300000I-1400000J0D01*
G01*
%TO.C,R14*%
X123727500Y-132737258D02*
X123727500Y-132262742D01*
X124772500Y-132737258D02*
X124772500Y-132262742D01*
%TO.C,U2*%
X78340000Y-146090000D02*
X79600000Y-146090000D01*
X78340000Y-152100000D02*
X78340000Y-146090000D01*
X85160000Y-146090000D02*
X83900000Y-146090000D01*
X85160000Y-149850000D02*
X85160000Y-146090000D01*
%TO.C,R21*%
X99772500Y-132262742D02*
X99772500Y-132737258D01*
X98727500Y-132262742D02*
X98727500Y-132737258D01*
D12*
%TO.C,BT3*%
X95650000Y-36300000D02*
X93850000Y-36300000D01*
X95650000Y-99600000D02*
X93850000Y-99600000D01*
X94750000Y-100500000D02*
X94750000Y-98700000D01*
D13*
X105750000Y-107300000D02*
X83750000Y-107300000D01*
X83750000Y-107300000D02*
X83750000Y-28700000D01*
X83750000Y-28700000D02*
X105750000Y-28700000D01*
X105750000Y-28700000D02*
X105750000Y-107300000D01*
D11*
X96150000Y-99600000D02*
G75*
G03*
X96150000Y-99600000I-1400000J0D01*
G01*
X96150000Y-36300000D02*
G75*
G03*
X96150000Y-36300000I-1400000J0D01*
G01*
%TO.C,Q4*%
X151370000Y-129350000D02*
X141130000Y-129350000D01*
X148790000Y-113460000D02*
X148790000Y-110920000D01*
X151370000Y-113460000D02*
X141130000Y-113460000D01*
X143710000Y-113460000D02*
X143710000Y-110920000D01*
X151370000Y-129350000D02*
X151370000Y-113460000D01*
X146250000Y-113460000D02*
X146250000Y-110920000D01*
X141130000Y-129350000D02*
X141130000Y-113460000D01*
%TO.C,J2*%
X101170000Y-144170000D02*
X102500000Y-144170000D01*
X101170000Y-145500000D02*
X101170000Y-144170000D01*
X103770000Y-146830000D02*
X111450000Y-146830000D01*
X103770000Y-144170000D02*
X111450000Y-144170000D01*
X111450000Y-146830000D02*
X111450000Y-144170000D01*
X103770000Y-146830000D02*
X103770000Y-144170000D01*
%TO.C,C3*%
X97740000Y-157609420D02*
X97740000Y-157890580D01*
X98760000Y-157609420D02*
X98760000Y-157890580D01*
%TO.C,J3*%
X144605000Y-162975000D02*
X144605000Y-161705000D01*
X149975000Y-163135000D02*
X155975000Y-163135000D01*
X149975000Y-165135000D02*
X155975000Y-165135000D01*
X149975000Y-167675000D02*
X155975000Y-167675000D01*
X149975000Y-162595000D02*
X155975000Y-162595000D01*
X144605000Y-161705000D02*
X145875000Y-161705000D01*
X149975000Y-161645000D02*
X147315000Y-161645000D01*
X146985000Y-163355000D02*
X147315000Y-163355000D01*
X149975000Y-163255000D02*
X155975000Y-163255000D01*
X155975000Y-165135000D02*
X155975000Y-165895000D01*
X146917929Y-168435000D02*
X147315000Y-168435000D01*
X155975000Y-162595000D02*
X155975000Y-163355000D01*
X149975000Y-162775000D02*
X155975000Y-162775000D01*
X155975000Y-163355000D02*
X149975000Y-163355000D01*
X149975000Y-163015000D02*
X155975000Y-163015000D01*
X147315000Y-164245000D02*
X149975000Y-164245000D01*
X147315000Y-166785000D02*
X149975000Y-166785000D01*
X155975000Y-167675000D02*
X155975000Y-168435000D01*
X147315000Y-161645000D02*
X147315000Y-169385000D01*
X149975000Y-169385000D02*
X149975000Y-161645000D01*
X146917929Y-165135000D02*
X147315000Y-165135000D01*
X146917929Y-165895000D02*
X147315000Y-165895000D01*
X155975000Y-165895000D02*
X149975000Y-165895000D01*
X155975000Y-168435000D02*
X149975000Y-168435000D01*
X147315000Y-169385000D02*
X149975000Y-169385000D01*
X146917929Y-167675000D02*
X147315000Y-167675000D01*
X149975000Y-162895000D02*
X155975000Y-162895000D01*
X146985000Y-162595000D02*
X147315000Y-162595000D01*
X149975000Y-162655000D02*
X155975000Y-162655000D01*
%TO.C,R20*%
X146727500Y-132737258D02*
X146727500Y-132262742D01*
X147772500Y-132737258D02*
X147772500Y-132262742D01*
%TO.C,D1*%
X68100000Y-154400000D02*
X68100000Y-149000000D01*
X68100000Y-154400000D02*
X71400000Y-154400000D01*
X71400000Y-154400000D02*
X71400000Y-149000000D01*
%TO.C,C8*%
X82461252Y-141610000D02*
X81038748Y-141610000D01*
X82461252Y-138890000D02*
X81038748Y-138890000D01*
D13*
%TO.C,F4*%
X136374000Y-134946000D02*
X139930000Y-134946000D01*
X129770000Y-134946000D02*
X129770000Y-110054000D01*
X139930000Y-134946000D02*
X139930000Y-110054000D01*
X139930000Y-110054000D02*
X136374000Y-110054000D01*
X133326000Y-110054000D02*
X129770000Y-110054000D01*
X133326000Y-134946000D02*
X129770000Y-134946000D01*
X134850000Y-131644000D02*
X134850000Y-113356000D01*
X136374000Y-127707000D02*
X133326000Y-127707000D01*
X133326000Y-127707000D02*
X133326000Y-117293000D01*
X133326000Y-117293000D02*
X136374000Y-117293000D01*
X136374000Y-117293000D02*
X136374000Y-127707000D01*
D12*
%TO.C,BT4*%
X141650000Y-36300000D02*
X139850000Y-36300000D01*
X141650000Y-99600000D02*
X139850000Y-99600000D01*
X140750000Y-100500000D02*
X140750000Y-98700000D01*
D13*
X151750000Y-107300000D02*
X129750000Y-107300000D01*
X129750000Y-107300000D02*
X129750000Y-28700000D01*
X129750000Y-28700000D02*
X151750000Y-28700000D01*
X151750000Y-28700000D02*
X151750000Y-107300000D01*
D11*
X142150000Y-36300000D02*
G75*
G03*
X142150000Y-36300000I-1400000J0D01*
G01*
X142150000Y-99600000D02*
G75*
G03*
X142150000Y-99600000I-1400000J0D01*
G01*
%TO.C,Y1*%
X117450000Y-156350000D02*
X117450000Y-157150000D01*
X117450000Y-157150000D02*
X115450000Y-157150000D01*
X115450000Y-153550000D02*
X115050000Y-153550000D01*
X115450000Y-153550000D02*
X117450000Y-153550000D01*
X117450000Y-153350000D02*
X115450000Y-153350000D01*
X115450000Y-153350000D02*
X115050000Y-153350000D01*
X115050000Y-154550000D02*
X115050000Y-153550000D01*
X115050000Y-157150000D02*
X115050000Y-156350000D01*
X117450000Y-153550000D02*
X117450000Y-154550000D01*
X115050000Y-154550000D02*
X114650000Y-154550000D01*
X115450000Y-157150000D02*
X115050000Y-157150000D01*
%TO.C,C5*%
X63038748Y-141360000D02*
X64461252Y-141360000D01*
X63038748Y-138640000D02*
X64461252Y-138640000D01*
%TO.C,L1*%
X95664758Y-155660000D02*
X97335242Y-155660000D01*
X95664758Y-153840000D02*
X97335242Y-153840000D01*
%TD*%
M02*
