%TF.GenerationSoftware,KiCad,Pcbnew,(6.0.9)*%
%TF.CreationDate,2022-12-22T11:47:32+01:00*%
%TF.ProjectId,BatteryDischargerV1,42617474-6572-4794-9469-736368617267,rev?*%
%TF.SameCoordinates,Original*%
%TF.FileFunction,Soldermask,Bot*%
%TF.FilePolarity,Negative*%
%FSLAX46Y46*%
G04 Gerber Fmt 4.6, Leading zero omitted, Abs format (unit mm)*
G04 Created by KiCad (PCBNEW (6.0.9)) date 2022-12-22 11:47:32*
%MOMM*%
%LPD*%
G01*
G04 APERTURE LIST*
G04 Aperture macros list*
%AMRoundRect*
0 Rectangle with rounded corners*
0 $1 Rounding radius*
0 $2 $3 $4 $5 $6 $7 $8 $9 X,Y pos of 4 corners*
0 Add a 4 corners polygon primitive as box body*
4,1,4,$2,$3,$4,$5,$6,$7,$8,$9,$2,$3,0*
0 Add four circle primitives for the rounded corners*
1,1,$1+$1,$2,$3*
1,1,$1+$1,$4,$5*
1,1,$1+$1,$6,$7*
1,1,$1+$1,$8,$9*
0 Add four rect primitives between the rounded corners*
20,1,$1+$1,$2,$3,$4,$5,0*
20,1,$1+$1,$4,$5,$6,$7,0*
20,1,$1+$1,$6,$7,$8,$9,0*
20,1,$1+$1,$8,$9,$2,$3,0*%
G04 Aperture macros list end*
%ADD10C,3.000000*%
%ADD11R,1.700000X1.700000*%
%ADD12O,1.700000X1.700000*%
%ADD13C,1.800000*%
%ADD14O,3.000000X2.500000*%
%ADD15C,4.000000*%
%ADD16R,2.000000X2.000000*%
%ADD17C,2.000000*%
%ADD18O,3.500000X3.500000*%
%ADD19R,1.905000X2.000000*%
%ADD20O,1.905000X2.000000*%
%ADD21C,0.800000*%
%ADD22C,6.400000*%
%ADD23RoundRect,0.250000X-0.600000X-0.600000X0.600000X-0.600000X0.600000X0.600000X-0.600000X0.600000X0*%
%ADD24C,1.700000*%
G04 APERTURE END LIST*
D10*
%TO.C,J2*%
X91500000Y-145754000D03*
X91070000Y-174456000D03*
X121804000Y-145754000D03*
X121550000Y-174456000D03*
D11*
X102500000Y-145500000D03*
D12*
X105040000Y-145500000D03*
X107580000Y-145500000D03*
X110120000Y-145500000D03*
%TD*%
D13*
%TO.C,SW2*%
X77000000Y-165000000D03*
X77000000Y-174000000D03*
D14*
X70500000Y-167000000D03*
X83000000Y-167000000D03*
X83000000Y-172000000D03*
X70500000Y-172000000D03*
%TD*%
D15*
%TO.C,BT1*%
X71750000Y-104000000D03*
X71750000Y-32000000D03*
%TD*%
D10*
%TO.C,F2*%
X111850000Y-133550000D03*
X111850000Y-110950000D03*
%TD*%
D16*
%TO.C,LS1*%
X132479216Y-144750000D03*
D17*
X137479216Y-144750000D03*
%TD*%
D18*
%TO.C,Q2*%
X123250000Y-126430000D03*
D19*
X125790000Y-109770000D03*
D20*
X123250000Y-109770000D03*
X120710000Y-109770000D03*
%TD*%
D10*
%TO.C,F3*%
X88850000Y-133550000D03*
X88850000Y-110950000D03*
%TD*%
D13*
%TO.C,SW1*%
X136000000Y-165000000D03*
X136000000Y-174000000D03*
D14*
X129500000Y-167000000D03*
X142000000Y-167000000D03*
X142000000Y-172000000D03*
X129500000Y-172000000D03*
%TD*%
D18*
%TO.C,Q3*%
X100250000Y-126430000D03*
D19*
X102790000Y-109770000D03*
D20*
X100250000Y-109770000D03*
X97710000Y-109770000D03*
%TD*%
D21*
%TO.C,H4*%
X153947056Y-173052944D03*
X152250000Y-172350000D03*
X150552944Y-173052944D03*
X154650000Y-174750000D03*
D22*
X152250000Y-174750000D03*
D21*
X149850000Y-174750000D03*
X150552944Y-176447056D03*
X152250000Y-177150000D03*
X153947056Y-176447056D03*
%TD*%
D18*
%TO.C,Q1*%
X77250000Y-126410000D03*
D19*
X79790000Y-109750000D03*
D20*
X77250000Y-109750000D03*
X74710000Y-109750000D03*
%TD*%
D23*
%TO.C,J1*%
X147997500Y-144920000D03*
D24*
X150537500Y-144920000D03*
X147997500Y-147460000D03*
X150537500Y-147460000D03*
X147997500Y-150000000D03*
X150537500Y-150000000D03*
X147997500Y-152540000D03*
X150537500Y-152540000D03*
X147997500Y-155080000D03*
X150537500Y-155080000D03*
%TD*%
D21*
%TO.C,H3*%
X152250000Y-25150000D03*
X150552944Y-21052944D03*
X152250000Y-20350000D03*
X153947056Y-24447056D03*
X154650000Y-22750000D03*
X153947056Y-21052944D03*
X150552944Y-24447056D03*
D22*
X152250000Y-22750000D03*
D21*
X149850000Y-22750000D03*
%TD*%
D10*
%TO.C,F1*%
X65850000Y-133550000D03*
X65850000Y-110950000D03*
%TD*%
D15*
%TO.C,BT2*%
X117750000Y-104000000D03*
X117750000Y-32000000D03*
%TD*%
%TO.C,BT3*%
X94750000Y-104000000D03*
X94750000Y-32000000D03*
%TD*%
D18*
%TO.C,Q4*%
X146250000Y-126430000D03*
D19*
X148790000Y-109770000D03*
D20*
X146250000Y-109770000D03*
X143710000Y-109770000D03*
%TD*%
D11*
%TO.C,J3*%
X145875000Y-162975000D03*
D12*
X145875000Y-165515000D03*
X145875000Y-168055000D03*
%TD*%
D21*
%TO.C,H2*%
X58552944Y-173052944D03*
X62650000Y-174750000D03*
X58552944Y-176447056D03*
X61947056Y-176447056D03*
D22*
X60250000Y-174750000D03*
D21*
X60250000Y-172350000D03*
X57850000Y-174750000D03*
X60250000Y-177150000D03*
X61947056Y-173052944D03*
%TD*%
D10*
%TO.C,F4*%
X134850000Y-133800000D03*
X134850000Y-111200000D03*
%TD*%
D15*
%TO.C,BT4*%
X140750000Y-104000000D03*
X140750000Y-32000000D03*
%TD*%
D17*
%TO.C,R18*%
X147550000Y-39298000D03*
X147550000Y-96702000D03*
%TD*%
%TO.C,R17*%
X101550000Y-39298000D03*
X101550000Y-96702000D03*
%TD*%
%TO.C,R12*%
X124550000Y-39298000D03*
X124550000Y-96702000D03*
%TD*%
%TO.C,R11*%
X78550000Y-39298000D03*
X78550000Y-96702000D03*
%TD*%
D21*
%TO.C,H1*%
X61947056Y-24447056D03*
X58552944Y-21052944D03*
D22*
X60250000Y-22750000D03*
D21*
X61947056Y-21052944D03*
X62650000Y-22750000D03*
X58552944Y-24447056D03*
X57850000Y-22750000D03*
X60250000Y-25150000D03*
X60250000Y-20350000D03*
%TD*%
M02*
