M48
; DRILL file {KiCad (6.0.10)} date Mon Jan  9 13:30:39 2023
; FORMAT={-:-/ absolute / inch / decimal}
; #@! TF.CreationDate,2023-01-09T13:30:39+01:00
; #@! TF.GenerationSoftware,Kicad,Pcbnew,(6.0.10)
; #@! TF.FileFunction,Plated,1,2,PTH
FMAT,2
INCH
; #@! TA.AperFunction,Plated,PTH,ViaDrill
T1C0.0157
; #@! TA.AperFunction,Plated,PTH,ComponentDrill
T2C0.0197
; #@! TA.AperFunction,Plated,PTH,ComponentDrill
T3C0.0394
; #@! TA.AperFunction,Plated,PTH,ComponentDrill
T4C0.0433
; #@! TA.AperFunction,Plated,PTH,ComponentDrill
T5C0.0472
; #@! TA.AperFunction,Plated,PTH,ComponentDrill
T6C0.0591
; #@! TA.AperFunction,Plated,PTH,ComponentDrill
T7C0.0787
; #@! TA.AperFunction,Plated,PTH,ComponentDrill
T8C0.1260
%
G90
G05
T1
X2.3819Y-6.1417
X2.3819Y-6.1811
X2.3819Y-6.2205
X2.4213Y-6.1417
X2.4213Y-6.1811
X2.4213Y-6.2205
X2.5492Y-5.3937
X2.5492Y-5.4331
X2.5886Y-5.3937
X2.5886Y-5.4331
X2.5984Y-6.4665
X2.628Y-5.3937
X2.628Y-5.4331
X2.628Y-5.4724
X2.628Y-5.5118
X2.628Y-5.5512
X2.628Y-5.6496
X2.628Y-5.689
X2.6673Y-5.6496
X2.6673Y-5.689
X2.7067Y-5.6496
X2.7067Y-5.689
X2.7461Y-5.6496
X2.7461Y-5.689
X2.815Y-6.25
X2.8642Y-5.4528
X3.002Y-5.2953
X3.0709Y-5.4823
X3.0709Y-5.5217
X3.0709Y-5.561
X3.0709Y-6.0236
X3.0709Y-6.063
X3.0709Y-6.1024
X3.0709Y-6.1417
X3.0709Y-6.1811
X3.1102Y-5.4823
X3.1102Y-5.5217
X3.1102Y-5.561
X3.1102Y-6.0236
X3.1102Y-6.063
X3.1102Y-6.1024
X3.1102Y-6.1417
X3.1102Y-6.1811
X3.3465Y-6.6634
X3.376Y-5.3445
X3.376Y-5.4626
X3.5039Y-6.4173
X3.5728Y-6.0335
X3.5728Y-6.1811
X3.6516Y-6.0335
X3.6516Y-6.1811
X3.6713Y-6.378
X3.7205Y-5.9744
X3.8189Y-6.2402
X3.8189Y-6.3091
X3.8484Y-5.3445
X3.8484Y-5.4528
X3.8583Y-6.378
X3.9075Y-5.2953
X3.9862Y-5.2953
X3.9862Y-5.4528
X3.9862Y-6.5945
X4.0059Y-5.8169
X4.0551Y-5.5315
X4.124Y-6.2795
X4.1339Y-5.9449
X4.1437Y-6.5945
X4.1535Y-6.2205
X4.1732Y-6.122
X4.2323Y-5.9547
X4.252Y-6.8504
X4.2638Y-6.1949
X4.3504Y-6.3878
X4.4094Y-6.6929
X4.4291Y-5.7283
X4.5177Y-6.1161
X4.5177Y-6.4075
X4.5177Y-6.5059
X4.5374Y-6.2697
X4.6161Y-5.7283
X4.7835Y-6.4665
X4.813Y-5.2953
X4.813Y-5.5315
X4.9902Y-5.3543
X5.0197Y-6.6732
X5.5659Y-6.2746
X5.6201Y-5.5807
X5.7185Y-5.2953
X5.7972Y-5.2953
T2
X2.2776Y-0.8957
X2.2776Y-6.8799
X2.3052Y-0.8289
X2.3052Y-0.9625
X2.3052Y-6.8131
X2.3052Y-6.9467
X2.372Y-0.8012
X2.372Y-0.9902
X2.372Y-6.7854
X2.372Y-6.9744
X2.4389Y-0.8289
X2.4389Y-0.9625
X2.4389Y-6.8131
X2.4389Y-6.9467
X2.4665Y-0.8957
X2.4665Y-6.8799
X5.8996Y-0.8957
X5.8996Y-6.8799
X5.9273Y-0.8289
X5.9273Y-0.9625
X5.9273Y-6.8131
X5.9273Y-6.9467
X5.9941Y-0.8012
X5.9941Y-0.9902
X5.9941Y-6.7854
X5.9941Y-6.9744
X6.0609Y-0.8289
X6.0609Y-0.9625
X6.0609Y-6.8131
X6.0609Y-6.9467
X6.0886Y-0.8957
X6.0886Y-6.8799
T3
X3.0925Y-1.5472
X3.0925Y-3.8072
X3.998Y-1.5472
X3.998Y-3.8072
X4.0354Y-5.7283
X4.1354Y-5.7283
X4.2354Y-5.7283
X4.3354Y-5.7283
X4.9035Y-1.5472
X4.9035Y-3.8072
X5.2157Y-5.6988
X5.4126Y-5.6988
X5.7431Y-6.4163
X5.7431Y-6.5163
X5.7431Y-6.6163
X5.8091Y-1.5472
X5.8091Y-3.8072
X5.8267Y-5.7055
X5.8267Y-5.8055
X5.8267Y-5.9055
X5.8267Y-6.0055
X5.8267Y-6.1055
X5.9267Y-5.7055
X5.9267Y-5.8055
X5.9267Y-5.9055
X5.9267Y-6.0055
X5.9267Y-6.1055
T4
X2.9413Y-4.3209
X3.0413Y-4.3209
X3.1413Y-4.3209
X3.8469Y-4.3217
X3.9469Y-4.3217
X4.0469Y-4.3217
X4.7524Y-4.3217
X4.8524Y-4.3217
X4.9524Y-4.3217
X5.6579Y-4.3217
X5.7579Y-4.3217
X5.8579Y-4.3217
T5
X2.7756Y-6.5748
X2.7756Y-6.7717
X3.2677Y-6.5748
X3.2677Y-6.7717
X5.0984Y-6.5748
X5.0984Y-6.7717
X5.5906Y-6.5748
X5.5906Y-6.7717
T6
X2.5925Y-4.3681
X2.5925Y-5.2579
X3.498Y-4.3681
X3.498Y-5.2579
X4.4035Y-4.3681
X4.4035Y-5.2579
X5.3091Y-4.378
X5.3091Y-5.2677
T7
X2.8248Y-1.2598
X2.8248Y-4.0945
X3.7303Y-1.2598
X3.7303Y-4.0945
X4.6358Y-1.2598
X4.6358Y-4.0945
X5.5413Y-1.2598
X5.5413Y-4.0945
T8
X2.372Y-0.8957
X2.372Y-6.8799
X5.9941Y-0.8957
X5.9941Y-6.8799
T0
M30
