%TF.GenerationSoftware,KiCad,Pcbnew,(6.0.9)*%
%TF.CreationDate,2022-12-22T11:47:32+01:00*%
%TF.ProjectId,BatteryDischargerV1,42617474-6572-4794-9469-736368617267,rev?*%
%TF.SameCoordinates,Original*%
%TF.FileFunction,Copper,L1,Top*%
%TF.FilePolarity,Positive*%
%FSLAX46Y46*%
G04 Gerber Fmt 4.6, Leading zero omitted, Abs format (unit mm)*
G04 Created by KiCad (PCBNEW (6.0.9)) date 2022-12-22 11:47:32*
%MOMM*%
%LPD*%
G01*
G04 APERTURE LIST*
G04 Aperture macros list*
%AMRoundRect*
0 Rectangle with rounded corners*
0 $1 Rounding radius*
0 $2 $3 $4 $5 $6 $7 $8 $9 X,Y pos of 4 corners*
0 Add a 4 corners polygon primitive as box body*
4,1,4,$2,$3,$4,$5,$6,$7,$8,$9,$2,$3,0*
0 Add four circle primitives for the rounded corners*
1,1,$1+$1,$2,$3*
1,1,$1+$1,$4,$5*
1,1,$1+$1,$6,$7*
1,1,$1+$1,$8,$9*
0 Add four rect primitives between the rounded corners*
20,1,$1+$1,$2,$3,$4,$5,0*
20,1,$1+$1,$4,$5,$6,$7,0*
20,1,$1+$1,$6,$7,$8,$9,0*
20,1,$1+$1,$8,$9,$2,$3,0*%
G04 Aperture macros list end*
%TA.AperFunction,SMDPad,CuDef*%
%ADD10R,1.600000X0.550000*%
%TD*%
%TA.AperFunction,SMDPad,CuDef*%
%ADD11R,0.550000X1.600000*%
%TD*%
%TA.AperFunction,ComponentPad*%
%ADD12R,1.700000X1.700000*%
%TD*%
%TA.AperFunction,ComponentPad*%
%ADD13O,1.700000X1.700000*%
%TD*%
%TA.AperFunction,SMDPad,CuDef*%
%ADD14RoundRect,0.200000X0.200000X0.275000X-0.200000X0.275000X-0.200000X-0.275000X0.200000X-0.275000X0*%
%TD*%
%TA.AperFunction,SMDPad,CuDef*%
%ADD15RoundRect,0.225000X0.225000X0.250000X-0.225000X0.250000X-0.225000X-0.250000X0.225000X-0.250000X0*%
%TD*%
%TA.AperFunction,SMDPad,CuDef*%
%ADD16RoundRect,0.200000X-0.275000X0.200000X-0.275000X-0.200000X0.275000X-0.200000X0.275000X0.200000X0*%
%TD*%
%TA.AperFunction,ComponentPad*%
%ADD17O,3.000000X2.500000*%
%TD*%
%TA.AperFunction,ComponentPad*%
%ADD18C,4.000000*%
%TD*%
%TA.AperFunction,SMDPad,CuDef*%
%ADD19RoundRect,0.250000X0.325000X1.100000X-0.325000X1.100000X-0.325000X-1.100000X0.325000X-1.100000X0*%
%TD*%
%TA.AperFunction,ComponentPad*%
%ADD20C,3.000000*%
%TD*%
%TA.AperFunction,ComponentPad*%
%ADD21R,2.000000X2.000000*%
%TD*%
%TA.AperFunction,ComponentPad*%
%ADD22C,2.000000*%
%TD*%
%TA.AperFunction,ComponentPad*%
%ADD23R,1.905000X2.000000*%
%TD*%
%TA.AperFunction,ComponentPad*%
%ADD24O,1.905000X2.000000*%
%TD*%
%TA.AperFunction,SMDPad,CuDef*%
%ADD25RoundRect,0.500000X-0.500000X-2.000000X0.500000X-2.000000X0.500000X2.000000X-0.500000X2.000000X0*%
%TD*%
%TA.AperFunction,SMDPad,CuDef*%
%ADD26RoundRect,0.200000X-0.200000X-0.275000X0.200000X-0.275000X0.200000X0.275000X-0.200000X0.275000X0*%
%TD*%
%TA.AperFunction,SMDPad,CuDef*%
%ADD27RoundRect,0.225000X-0.225000X-0.250000X0.225000X-0.250000X0.225000X0.250000X-0.225000X0.250000X0*%
%TD*%
%TA.AperFunction,ComponentPad*%
%ADD28C,0.800000*%
%TD*%
%TA.AperFunction,ComponentPad*%
%ADD29C,6.400000*%
%TD*%
%TA.AperFunction,SMDPad,CuDef*%
%ADD30RoundRect,0.200000X0.275000X-0.200000X0.275000X0.200000X-0.275000X0.200000X-0.275000X-0.200000X0*%
%TD*%
%TA.AperFunction,SMDPad,CuDef*%
%ADD31RoundRect,0.225000X-0.250000X0.225000X-0.250000X-0.225000X0.250000X-0.225000X0.250000X0.225000X0*%
%TD*%
%TA.AperFunction,ComponentPad*%
%ADD32RoundRect,0.250000X-0.600000X-0.600000X0.600000X-0.600000X0.600000X0.600000X-0.600000X0.600000X0*%
%TD*%
%TA.AperFunction,ComponentPad*%
%ADD33C,1.700000*%
%TD*%
%TA.AperFunction,SMDPad,CuDef*%
%ADD34RoundRect,0.150000X0.512500X0.150000X-0.512500X0.150000X-0.512500X-0.150000X0.512500X-0.150000X0*%
%TD*%
%TA.AperFunction,SMDPad,CuDef*%
%ADD35R,1.500000X2.000000*%
%TD*%
%TA.AperFunction,SMDPad,CuDef*%
%ADD36R,3.800000X2.000000*%
%TD*%
%TA.AperFunction,SMDPad,CuDef*%
%ADD37R,1.800000X2.500000*%
%TD*%
%TA.AperFunction,SMDPad,CuDef*%
%ADD38R,1.700000X0.600000*%
%TD*%
%TA.AperFunction,SMDPad,CuDef*%
%ADD39R,1.700000X0.400000*%
%TD*%
%TA.AperFunction,SMDPad,CuDef*%
%ADD40RoundRect,0.250000X-0.325000X-1.100000X0.325000X-1.100000X0.325000X1.100000X-0.325000X1.100000X0*%
%TD*%
%TA.AperFunction,SMDPad,CuDef*%
%ADD41RoundRect,0.250000X-0.275000X-0.700000X0.275000X-0.700000X0.275000X0.700000X-0.275000X0.700000X0*%
%TD*%
%TA.AperFunction,ViaPad*%
%ADD42C,0.800000*%
%TD*%
%TA.AperFunction,Conductor*%
%ADD43C,0.355600*%
%TD*%
%TA.AperFunction,Conductor*%
%ADD44C,1.200000*%
%TD*%
%TA.AperFunction,Conductor*%
%ADD45C,0.457200*%
%TD*%
%TA.AperFunction,Conductor*%
%ADD46C,0.762000*%
%TD*%
G04 APERTURE END LIST*
D10*
%TO.P,U1,1,PD3*%
%TO.N,PD3{slash}INT1*%
X110500000Y-160550000D03*
%TO.P,U1,2,PD4*%
%TO.N,MOSFET1*%
X110500000Y-159750000D03*
%TO.P,U1,3,GND*%
%TO.N,GND*%
X110500000Y-158950000D03*
%TO.P,U1,4,VCC*%
%TO.N,+5V*%
X110500000Y-158150000D03*
%TO.P,U1,5,GND*%
%TO.N,GND*%
X110500000Y-157350000D03*
%TO.P,U1,6,VCC*%
%TO.N,+5V*%
X110500000Y-156550000D03*
%TO.P,U1,7,XTAL1/PB6*%
%TO.N,Net-(U1-Pad7)*%
X110500000Y-155750000D03*
%TO.P,U1,8,XTAL2/PB7*%
%TO.N,Net-(U1-Pad8)*%
X110500000Y-154950000D03*
D11*
%TO.P,U1,9,PD5*%
%TO.N,/BUZZER*%
X109050000Y-153500000D03*
%TO.P,U1,10,PD6*%
%TO.N,MOSFET4*%
X108250000Y-153500000D03*
%TO.P,U1,11,PD7*%
%TO.N,MOSFET3*%
X107450000Y-153500000D03*
%TO.P,U1,12,PB0*%
%TO.N,unconnected-(U1-Pad12)*%
X106650000Y-153500000D03*
%TO.P,U1,13,PB1*%
%TO.N,unconnected-(U1-Pad13)*%
X105850000Y-153500000D03*
%TO.P,U1,14,PB2*%
%TO.N,MOSFET2*%
X105050000Y-153500000D03*
%TO.P,U1,15,PB3*%
%TO.N,PB3*%
X104250000Y-153500000D03*
%TO.P,U1,16,PB4*%
%TO.N,PB4*%
X103450000Y-153500000D03*
D10*
%TO.P,U1,17,PB5*%
%TO.N,PB5*%
X102000000Y-154950000D03*
%TO.P,U1,18,AVCC*%
%TO.N,Net-(C2-Pad1)*%
X102000000Y-155750000D03*
%TO.P,U1,19,ADC6*%
%TO.N,unconnected-(U1-Pad19)*%
X102000000Y-156550000D03*
%TO.P,U1,20,AREF*%
%TO.N,/AREF*%
X102000000Y-157350000D03*
%TO.P,U1,21,GND*%
%TO.N,GND*%
X102000000Y-158150000D03*
%TO.P,U1,22,ADC7*%
%TO.N,unconnected-(U1-Pad22)*%
X102000000Y-158950000D03*
%TO.P,U1,23,PC0*%
%TO.N,VBAT1*%
X102000000Y-159750000D03*
%TO.P,U1,24,PC1*%
%TO.N,VBAT2*%
X102000000Y-160550000D03*
D11*
%TO.P,U1,25,PC2*%
%TO.N,VBAT3*%
X103450000Y-162000000D03*
%TO.P,U1,26,PC3*%
%TO.N,VBAT4*%
X104250000Y-162000000D03*
%TO.P,U1,27,PC4*%
%TO.N,SDA*%
X105050000Y-162000000D03*
%TO.P,U1,28,PC5*%
%TO.N,SCL*%
X105850000Y-162000000D03*
%TO.P,U1,29,~{RESET}/PC6*%
%TO.N,RESET*%
X106650000Y-162000000D03*
%TO.P,U1,30,PD0*%
%TO.N,/RX*%
X107450000Y-162000000D03*
%TO.P,U1,31,PD1*%
%TO.N,/TX*%
X108250000Y-162000000D03*
%TO.P,U1,32,PD2*%
%TO.N,PD2{slash}INT0*%
X109050000Y-162000000D03*
%TD*%
D12*
%TO.P,J2,1,Pin_1*%
%TO.N,GND*%
X102500000Y-145500000D03*
D13*
%TO.P,J2,2,Pin_2*%
%TO.N,+3V3*%
X105040000Y-145500000D03*
%TO.P,J2,3,Pin_3*%
%TO.N,SCL*%
X107580000Y-145500000D03*
%TO.P,J2,4,Pin_4*%
%TO.N,SDA*%
X110120000Y-145500000D03*
%TD*%
D14*
%TO.P,R4,1*%
%TO.N,RESET*%
X104325000Y-165750000D03*
%TO.P,R4,2*%
%TO.N,+5V*%
X102675000Y-165750000D03*
%TD*%
D15*
%TO.P,C2,1*%
%TO.N,Net-(C2-Pad1)*%
X97275000Y-151750000D03*
%TO.P,C2,2*%
%TO.N,GND*%
X95725000Y-151750000D03*
%TD*%
D16*
%TO.P,R15,1*%
%TO.N,Net-(Q1-Pad1)*%
X76250000Y-131675000D03*
%TO.P,R15,2*%
%TO.N,GND*%
X76250000Y-133325000D03*
%TD*%
D17*
%TO.P,SW2,1,1*%
%TO.N,Net-(R8-Pad1)*%
X70500000Y-167000000D03*
X83000000Y-167000000D03*
%TO.P,SW2,2,2*%
%TO.N,GND*%
X83000000Y-172000000D03*
X70500000Y-172000000D03*
%TD*%
D18*
%TO.P,BT1,1,+*%
%TO.N,VBAT1*%
X71750000Y-104000000D03*
%TO.P,BT1,2,-*%
%TO.N,GND*%
X71750000Y-32000000D03*
%TD*%
D19*
%TO.P,C7,1*%
%TO.N,+5V*%
X83225000Y-156000000D03*
%TO.P,C7,2*%
%TO.N,GND*%
X80275000Y-156000000D03*
%TD*%
D20*
%TO.P,F2,1*%
%TO.N,Net-(F2-Pad1)*%
X111850000Y-133550000D03*
%TO.P,F2,2*%
%TO.N,VBAT3*%
X111850000Y-110950000D03*
%TD*%
D14*
%TO.P,R9,1*%
%TO.N,+5V*%
X71575000Y-141000000D03*
%TO.P,R9,2*%
%TO.N,/FB*%
X69925000Y-141000000D03*
%TD*%
D21*
%TO.P,LS1,1,1*%
%TO.N,/BUZZER*%
X132479216Y-144750000D03*
D22*
%TO.P,LS1,2,2*%
%TO.N,GND*%
X137479216Y-144750000D03*
%TD*%
D23*
%TO.P,Q2,1,G*%
%TO.N,Net-(Q2-Pad1)*%
X125790000Y-109770000D03*
D24*
%TO.P,Q2,2,D*%
%TO.N,Net-(Q2-Pad2)*%
X123250000Y-109770000D03*
%TO.P,Q2,3,S*%
%TO.N,GND*%
X120710000Y-109770000D03*
%TD*%
D25*
%TO.P,L2,1*%
%TO.N,VBAT1*%
X62000000Y-150500000D03*
%TO.P,L2,2*%
%TO.N,/L_OUT*%
X66000000Y-150500000D03*
%TD*%
D20*
%TO.P,F3,1*%
%TO.N,Net-(F3-Pad1)*%
X88850000Y-133550000D03*
%TO.P,F3,2*%
%TO.N,VBAT2*%
X88850000Y-110950000D03*
%TD*%
D16*
%TO.P,R16,1*%
%TO.N,Net-(Q2-Pad1)*%
X122250000Y-131675000D03*
%TO.P,R16,2*%
%TO.N,GND*%
X122250000Y-133325000D03*
%TD*%
D26*
%TO.P,R10,1*%
%TO.N,/FB*%
X69925000Y-138500000D03*
%TO.P,R10,2*%
%TO.N,GND*%
X71575000Y-138500000D03*
%TD*%
D27*
%TO.P,CD1,1*%
%TO.N,PD2{slash}INT0*%
X124725000Y-169500000D03*
%TO.P,CD1,2*%
%TO.N,GND*%
X126275000Y-169500000D03*
%TD*%
D15*
%TO.P,CD2,1*%
%TO.N,PD3{slash}INT1*%
X87775000Y-169250000D03*
%TO.P,CD2,2*%
%TO.N,GND*%
X86225000Y-169250000D03*
%TD*%
D17*
%TO.P,SW1,1,1*%
%TO.N,Net-(R7-Pad1)*%
X129500000Y-167000000D03*
X142000000Y-167000000D03*
%TO.P,SW1,2,2*%
%TO.N,GND*%
X142000000Y-172000000D03*
X129500000Y-172000000D03*
%TD*%
D14*
%TO.P,R7,1*%
%TO.N,Net-(R7-Pad1)*%
X126325000Y-167000000D03*
%TO.P,R7,2*%
%TO.N,PD2{slash}INT0*%
X124675000Y-167000000D03*
%TD*%
D23*
%TO.P,Q3,1,G*%
%TO.N,Net-(Q3-Pad1)*%
X102790000Y-109770000D03*
D24*
%TO.P,Q3,2,D*%
%TO.N,Net-(Q3-Pad2)*%
X100250000Y-109770000D03*
%TO.P,Q3,3,S*%
%TO.N,GND*%
X97710000Y-109770000D03*
%TD*%
D28*
%TO.P,H4,1,1*%
%TO.N,unconnected-(H4-Pad1)*%
X153947056Y-173052944D03*
X152250000Y-172350000D03*
X150552944Y-173052944D03*
X154650000Y-174750000D03*
D29*
X152250000Y-174750000D03*
D28*
X149850000Y-174750000D03*
X150552944Y-176447056D03*
X152250000Y-177150000D03*
X153947056Y-176447056D03*
%TD*%
D30*
%TO.P,R19,1*%
%TO.N,MOSFET2*%
X101250000Y-133325000D03*
%TO.P,R19,2*%
%TO.N,Net-(Q3-Pad1)*%
X101250000Y-131675000D03*
%TD*%
D26*
%TO.P,R8,1*%
%TO.N,Net-(R8-Pad1)*%
X86175000Y-167000000D03*
%TO.P,R8,2*%
%TO.N,PD3{slash}INT1*%
X87825000Y-167000000D03*
%TD*%
D23*
%TO.P,Q1,1,G*%
%TO.N,Net-(Q1-Pad1)*%
X79790000Y-109750000D03*
D24*
%TO.P,Q1,2,D*%
%TO.N,Net-(Q1-Pad2)*%
X77250000Y-109750000D03*
%TO.P,Q1,3,S*%
%TO.N,GND*%
X74710000Y-109750000D03*
%TD*%
D31*
%TO.P,C1,1*%
%TO.N,+5V*%
X114000000Y-157725000D03*
%TO.P,C1,2*%
%TO.N,GND*%
X114000000Y-159275000D03*
%TD*%
D32*
%TO.P,J1,1,Pin_1*%
%TO.N,PB3*%
X147997500Y-144920000D03*
D33*
%TO.P,J1,2,Pin_2*%
%TO.N,+5V*%
X150537500Y-144920000D03*
%TO.P,J1,3,Pin_3*%
%TO.N,GND*%
X147997500Y-147460000D03*
%TO.P,J1,4,Pin_4*%
X150537500Y-147460000D03*
%TO.P,J1,5,Pin_5*%
%TO.N,RESET*%
X147997500Y-150000000D03*
%TO.P,J1,6,Pin_6*%
%TO.N,GND*%
X150537500Y-150000000D03*
%TO.P,J1,7,Pin_7*%
%TO.N,PB5*%
X147997500Y-152540000D03*
%TO.P,J1,8,Pin_8*%
%TO.N,GND*%
X150537500Y-152540000D03*
%TO.P,J1,9,Pin_9*%
%TO.N,PB4*%
X147997500Y-155080000D03*
%TO.P,J1,10,Pin_10*%
%TO.N,GND*%
X150537500Y-155080000D03*
%TD*%
D16*
%TO.P,R22,1*%
%TO.N,Net-(Q4-Pad1)*%
X145250000Y-131675000D03*
%TO.P,R22,2*%
%TO.N,GND*%
X145250000Y-133325000D03*
%TD*%
D28*
%TO.P,H3,1,1*%
%TO.N,unconnected-(H3-Pad1)*%
X152250000Y-25150000D03*
X150552944Y-21052944D03*
X152250000Y-20350000D03*
X153947056Y-24447056D03*
X154650000Y-22750000D03*
X153947056Y-21052944D03*
X150552944Y-24447056D03*
D29*
X152250000Y-22750000D03*
D28*
X149850000Y-22750000D03*
%TD*%
D19*
%TO.P,C6,1*%
%TO.N,+5V*%
X65725000Y-157000000D03*
%TO.P,C6,2*%
%TO.N,GND*%
X62775000Y-157000000D03*
%TD*%
D30*
%TO.P,R13,1*%
%TO.N,MOSFET1*%
X78250000Y-133325000D03*
%TO.P,R13,2*%
%TO.N,Net-(Q1-Pad1)*%
X78250000Y-131675000D03*
%TD*%
D34*
%TO.P,U3,1,SW*%
%TO.N,/L_OUT*%
X64887500Y-145450000D03*
%TO.P,U3,2,GND*%
%TO.N,GND*%
X64887500Y-144500000D03*
%TO.P,U3,3,FB*%
%TO.N,/FB*%
X64887500Y-143550000D03*
%TO.P,U3,4,EN*%
%TO.N,VBAT1*%
X62612500Y-143550000D03*
%TO.P,U3,5,IN*%
X62612500Y-144500000D03*
%TO.P,U3,6,NC*%
%TO.N,unconnected-(U3-Pad6)*%
X62612500Y-145450000D03*
%TD*%
D20*
%TO.P,F1,1*%
%TO.N,Net-(F1-Pad1)*%
X65850000Y-133550000D03*
%TO.P,F1,2*%
%TO.N,VBAT1*%
X65850000Y-110950000D03*
%TD*%
D18*
%TO.P,BT2,1,+*%
%TO.N,VBAT3*%
X117750000Y-104000000D03*
%TO.P,BT2,2,-*%
%TO.N,GND*%
X117750000Y-32000000D03*
%TD*%
D30*
%TO.P,R14,1*%
%TO.N,MOSFET3*%
X124250000Y-133325000D03*
%TO.P,R14,2*%
%TO.N,Net-(Q2-Pad1)*%
X124250000Y-131675000D03*
%TD*%
D35*
%TO.P,U2,1,GND*%
%TO.N,GND*%
X79450000Y-151150000D03*
D36*
%TO.P,U2,2,VO*%
%TO.N,+3V3*%
X81750000Y-144850000D03*
D35*
X81750000Y-151150000D03*
%TO.P,U2,3,VI*%
%TO.N,+5V*%
X84050000Y-151150000D03*
%TD*%
D16*
%TO.P,R21,1*%
%TO.N,Net-(Q3-Pad1)*%
X99250000Y-131675000D03*
%TO.P,R21,2*%
%TO.N,GND*%
X99250000Y-133325000D03*
%TD*%
D18*
%TO.P,BT3,1,+*%
%TO.N,VBAT2*%
X94750000Y-104000000D03*
%TO.P,BT3,2,-*%
%TO.N,GND*%
X94750000Y-32000000D03*
%TD*%
D23*
%TO.P,Q4,1,G*%
%TO.N,Net-(Q4-Pad1)*%
X148790000Y-109770000D03*
D24*
%TO.P,Q4,2,D*%
%TO.N,Net-(Q4-Pad2)*%
X146250000Y-109770000D03*
%TO.P,Q4,3,S*%
%TO.N,GND*%
X143710000Y-109770000D03*
%TD*%
D31*
%TO.P,C3,1*%
%TO.N,/AREF*%
X98250000Y-156975000D03*
%TO.P,C3,2*%
%TO.N,GND*%
X98250000Y-158525000D03*
%TD*%
D12*
%TO.P,J3,1,Pin_1*%
%TO.N,GND*%
X145875000Y-162975000D03*
D13*
%TO.P,J3,2,Pin_2*%
%TO.N,/TX*%
X145875000Y-165515000D03*
%TO.P,J3,3,Pin_3*%
%TO.N,/RX*%
X145875000Y-168055000D03*
%TD*%
D28*
%TO.P,H2,1,1*%
%TO.N,unconnected-(H2-Pad1)*%
X58552944Y-173052944D03*
X62650000Y-174750000D03*
X58552944Y-176447056D03*
X61947056Y-176447056D03*
D29*
X60250000Y-174750000D03*
D28*
X60250000Y-172350000D03*
X57850000Y-174750000D03*
X60250000Y-177150000D03*
X61947056Y-173052944D03*
%TD*%
D30*
%TO.P,R20,1*%
%TO.N,MOSFET4*%
X147250000Y-133325000D03*
%TO.P,R20,2*%
%TO.N,Net-(Q4-Pad1)*%
X147250000Y-131675000D03*
%TD*%
D37*
%TO.P,D1,1,K*%
%TO.N,+5V*%
X69750000Y-153000000D03*
%TO.P,D1,2,A*%
%TO.N,/L_OUT*%
X69750000Y-149000000D03*
%TD*%
D19*
%TO.P,C8,1*%
%TO.N,+3V3*%
X83225000Y-140250000D03*
%TO.P,C8,2*%
%TO.N,GND*%
X80275000Y-140250000D03*
%TD*%
D20*
%TO.P,F4,1*%
%TO.N,Net-(F4-Pad1)*%
X134850000Y-133800000D03*
%TO.P,F4,2*%
%TO.N,VBAT4*%
X134850000Y-111200000D03*
%TD*%
D18*
%TO.P,BT4,1,+*%
%TO.N,VBAT4*%
X140750000Y-104000000D03*
%TO.P,BT4,2,-*%
%TO.N,GND*%
X140750000Y-32000000D03*
%TD*%
D38*
%TO.P,Y1,1,1*%
%TO.N,Net-(U1-Pad8)*%
X116250000Y-154400000D03*
D39*
%TO.P,Y1,2,2*%
%TO.N,GND*%
X116250000Y-155350000D03*
D38*
%TO.P,Y1,3,3*%
%TO.N,Net-(U1-Pad7)*%
X116250000Y-156300000D03*
%TD*%
D40*
%TO.P,C5,1*%
%TO.N,VBAT1*%
X62275000Y-140000000D03*
%TO.P,C5,2*%
%TO.N,GND*%
X65225000Y-140000000D03*
%TD*%
D41*
%TO.P,L1,1*%
%TO.N,+5V*%
X94925000Y-154750000D03*
%TO.P,L1,2*%
%TO.N,Net-(C2-Pad1)*%
X98075000Y-154750000D03*
%TD*%
D22*
%TO.P,R18,1*%
%TO.N,Net-(F4-Pad1)*%
X147550000Y-39298000D03*
%TO.P,R18,2*%
%TO.N,Net-(Q4-Pad2)*%
X147550000Y-96702000D03*
%TD*%
%TO.P,R17,1*%
%TO.N,Net-(F3-Pad1)*%
X101550000Y-39298000D03*
%TO.P,R17,2*%
%TO.N,Net-(Q3-Pad2)*%
X101550000Y-96702000D03*
%TD*%
%TO.P,R12,1*%
%TO.N,Net-(F2-Pad1)*%
X124550000Y-39298000D03*
%TO.P,R12,2*%
%TO.N,Net-(Q2-Pad2)*%
X124550000Y-96702000D03*
%TD*%
%TO.P,R11,1*%
%TO.N,Net-(F1-Pad1)*%
X78550000Y-39298000D03*
%TO.P,R11,2*%
%TO.N,Net-(Q1-Pad2)*%
X78550000Y-96702000D03*
%TD*%
D28*
%TO.P,H1,1,1*%
%TO.N,unconnected-(H1-Pad1)*%
X61947056Y-24447056D03*
X58552944Y-21052944D03*
D29*
X60250000Y-22750000D03*
D28*
X61947056Y-21052944D03*
X62650000Y-22750000D03*
X58552944Y-24447056D03*
X57850000Y-22750000D03*
X60250000Y-25150000D03*
X60250000Y-20350000D03*
%TD*%
D42*
%TO.N,GND*%
X103000000Y-140500000D03*
%TO.N,SCL*%
X105500000Y-158000000D03*
%TO.N,SDA*%
X104750000Y-159500000D03*
%TO.N,VBAT4*%
X106000000Y-155500000D03*
%TO.N,GND*%
X108300000Y-157350000D03*
%TO.N,VBAT2*%
X98000000Y-162000000D03*
%TO.N,VBAT1*%
X97000000Y-160250000D03*
%TO.N,VBAT2*%
X93250000Y-162000000D03*
X90750000Y-157000000D03*
X90750000Y-153250000D03*
%TO.N,VBAT3*%
X92750000Y-153250000D03*
X92750000Y-157000000D03*
%TO.N,VBAT1*%
X89000000Y-163000000D03*
%TO.N,+5V*%
X121500000Y-164250000D03*
X141375000Y-159375000D03*
X101250000Y-167500000D03*
%TO.N,PD3{slash}INT1*%
X105250000Y-167500000D03*
%TO.N,VBAT4*%
X117250000Y-145500000D03*
X122250000Y-140500000D03*
X126750000Y-136000000D03*
%TO.N,VBAT3*%
X97750000Y-135750000D03*
X97750000Y-138500000D03*
%TO.N,MOSFET2*%
X101250000Y-134500000D03*
%TO.N,MOSFET3*%
X112500000Y-145500000D03*
%TO.N,MOSFET2*%
X101250000Y-138500000D03*
X105000000Y-151000000D03*
%TO.N,VBAT2*%
X85750000Y-138750000D03*
X85750000Y-135750000D03*
%TO.N,MOSFET2*%
X101750000Y-147750000D03*
%TO.N,GND*%
X127500000Y-169500000D03*
X85000000Y-169250000D03*
%TO.N,PD3{slash}INT1*%
X110500000Y-162250000D03*
%TO.N,MOSFET1*%
X108000000Y-174000000D03*
X112000000Y-170000000D03*
X114750000Y-165250000D03*
X114750000Y-162750000D03*
X66000000Y-164250000D03*
X71500000Y-158750000D03*
%TO.N,GND*%
X79000000Y-153000000D03*
X66750000Y-143500000D03*
X78000000Y-140250000D03*
X76250000Y-134500000D03*
X68750000Y-143500000D03*
X78000000Y-154000000D03*
X67750000Y-143500000D03*
X79000000Y-156000000D03*
X79000000Y-154000000D03*
X94500000Y-151750000D03*
X66750000Y-140000000D03*
X114750000Y-155350000D03*
X145250000Y-134500000D03*
X65750000Y-137000000D03*
X79000000Y-140250000D03*
X99250000Y-134500000D03*
X78000000Y-155000000D03*
X79000000Y-139250000D03*
X60500000Y-156000000D03*
X78000000Y-157000000D03*
X66750000Y-139000000D03*
X64750000Y-138000000D03*
X97000000Y-158500000D03*
X72750000Y-138500000D03*
X67750000Y-144500000D03*
X68750000Y-144500000D03*
X64750000Y-137000000D03*
X61500000Y-158000000D03*
X78000000Y-153000000D03*
X65750000Y-138000000D03*
X60500000Y-157000000D03*
X61500000Y-157000000D03*
X122250000Y-134500000D03*
X79000000Y-157000000D03*
X66750000Y-137000000D03*
X66750000Y-138000000D03*
X78000000Y-141250000D03*
X115250000Y-159250000D03*
X61500000Y-156000000D03*
X78000000Y-156000000D03*
X69750000Y-144500000D03*
X78000000Y-139250000D03*
X79000000Y-141250000D03*
X66750000Y-144500000D03*
X66750000Y-141000000D03*
X69750000Y-143500000D03*
X60500000Y-158000000D03*
X79000000Y-155000000D03*
%TO.N,MOSFET3*%
X107500000Y-151250000D03*
%TO.N,MOSFET4*%
X147250000Y-134500000D03*
X142750000Y-141750000D03*
%TD*%
D43*
%TO.N,PB4*%
X103450000Y-152200000D02*
X103450000Y-153500000D01*
X102875000Y-151625000D02*
X103450000Y-152200000D01*
X102875000Y-150375000D02*
X102875000Y-151625000D01*
X104750000Y-148500000D02*
X102875000Y-150375000D01*
X114500000Y-148500000D02*
X104750000Y-148500000D01*
X115750000Y-147250000D02*
X114500000Y-148500000D01*
X115750000Y-144500000D02*
X115750000Y-147250000D01*
X149250000Y-139000000D02*
X121250000Y-139000000D01*
X121250000Y-139000000D02*
X115750000Y-144500000D01*
X153250000Y-156000000D02*
X153250000Y-143000000D01*
X148750000Y-157250000D02*
X152000000Y-157250000D01*
X147997500Y-156497500D02*
X148750000Y-157250000D01*
X153250000Y-143000000D02*
X149250000Y-139000000D01*
X147997500Y-155080000D02*
X147997500Y-156497500D01*
X152000000Y-157250000D02*
X153250000Y-156000000D01*
D44*
%TO.N,GND*%
X103000000Y-142750000D02*
X102500000Y-143250000D01*
X103000000Y-140500000D02*
X103000000Y-142750000D01*
X102500000Y-145500000D02*
X102500000Y-143250000D01*
D43*
%TO.N,SCL*%
X105850000Y-158350000D02*
X105500000Y-158000000D01*
X105850000Y-162000000D02*
X105850000Y-158350000D01*
%TO.N,SDA*%
X105050000Y-159800000D02*
X104750000Y-159500000D01*
X105050000Y-162000000D02*
X105050000Y-159800000D01*
%TO.N,VBAT4*%
X104250000Y-156500000D02*
X105250000Y-155500000D01*
X104250000Y-158000000D02*
X104250000Y-156500000D01*
X105250000Y-155500000D02*
X106000000Y-155500000D01*
X103750000Y-158500000D02*
X104250000Y-158000000D01*
X104250000Y-160750000D02*
X103750000Y-160250000D01*
X103750000Y-160250000D02*
X103750000Y-158500000D01*
X104250000Y-162000000D02*
X104250000Y-160750000D01*
%TO.N,RESET*%
X106650000Y-170650000D02*
X106650000Y-166150000D01*
X145000000Y-150000000D02*
X147997500Y-150000000D01*
X143250000Y-151750000D02*
X145000000Y-150000000D01*
X143250000Y-158500000D02*
X143250000Y-151750000D01*
X145250000Y-160500000D02*
X143250000Y-158500000D01*
X148000000Y-160500000D02*
X145250000Y-160500000D01*
X149250000Y-161750000D02*
X148000000Y-160500000D01*
X147500000Y-170500000D02*
X149250000Y-168750000D01*
X147500000Y-176250000D02*
X147500000Y-170500000D01*
X146000000Y-177750000D02*
X147500000Y-176250000D01*
X113750000Y-177750000D02*
X146000000Y-177750000D01*
X106650000Y-170650000D02*
X113750000Y-177750000D01*
X149250000Y-168750000D02*
X149250000Y-161750000D01*
%TO.N,+5V*%
X109050000Y-156550000D02*
X110500000Y-156550000D01*
X108500000Y-156000000D02*
X109050000Y-156550000D01*
X107250000Y-156500000D02*
X107750000Y-156000000D01*
X107250000Y-158000000D02*
X107250000Y-156500000D01*
X109100000Y-158150000D02*
X108750000Y-158500000D01*
X108750000Y-158500000D02*
X107750000Y-158500000D01*
X107750000Y-158500000D02*
X107250000Y-158000000D01*
X110500000Y-158150000D02*
X109100000Y-158150000D01*
X107750000Y-156000000D02*
X108500000Y-156000000D01*
D45*
%TO.N,GND*%
X110500000Y-157350000D02*
X108300000Y-157350000D01*
D46*
%TO.N,+5V*%
X122625000Y-162125000D02*
X123625000Y-162125000D01*
D44*
X123625000Y-162125000D02*
X123125000Y-162625000D01*
X126375000Y-159375000D02*
X123625000Y-162125000D01*
D46*
X122500000Y-162000000D02*
X122625000Y-162125000D01*
D44*
X122625000Y-163125000D02*
X121500000Y-164250000D01*
D46*
X122625000Y-162125000D02*
X122625000Y-163125000D01*
D44*
X123125000Y-162625000D02*
X122625000Y-163125000D01*
D46*
X122500000Y-162000000D02*
X123125000Y-162625000D01*
X118500000Y-158000000D02*
X122500000Y-162000000D01*
X115250000Y-158000000D02*
X118500000Y-158000000D01*
X114000000Y-157725000D02*
X114975000Y-157725000D01*
X114975000Y-157725000D02*
X115250000Y-158000000D01*
D45*
X100000000Y-166750000D02*
X100750000Y-167500000D01*
X100750000Y-167500000D02*
X101250000Y-167500000D01*
X100000000Y-166750000D02*
X99250000Y-167500000D01*
D44*
X99250000Y-167500000D02*
X100000000Y-167500000D01*
D45*
X100000000Y-166750000D02*
X100000000Y-167500000D01*
X100000000Y-166250000D02*
X100000000Y-166750000D01*
D44*
X96000000Y-167500000D02*
X99250000Y-167500000D01*
D45*
X100500000Y-165750000D02*
X100000000Y-166250000D01*
D44*
X100000000Y-167500000D02*
X101250000Y-167500000D01*
D45*
X102675000Y-165750000D02*
X100500000Y-165750000D01*
D43*
%TO.N,VBAT2*%
X101250000Y-162000000D02*
X102000000Y-161250000D01*
X98000000Y-162000000D02*
X101250000Y-162000000D01*
X102000000Y-161250000D02*
X102000000Y-160550000D01*
%TO.N,VBAT1*%
X98750000Y-160250000D02*
X97000000Y-160250000D01*
%TO.N,VBAT2*%
X87000000Y-149500000D02*
X90750000Y-153250000D01*
X87000000Y-140000000D02*
X87000000Y-149500000D01*
X90750000Y-159500000D02*
X93250000Y-162000000D01*
X85750000Y-138750000D02*
X87000000Y-140000000D01*
X90750000Y-157000000D02*
X90750000Y-159500000D01*
%TO.N,VBAT3*%
X92750000Y-158750000D02*
X96000000Y-162000000D01*
X92750000Y-157000000D02*
X92750000Y-158750000D01*
X97750000Y-146000000D02*
X97750000Y-138500000D01*
X97750000Y-146000000D02*
X92750000Y-151000000D01*
X92750000Y-151000000D02*
X92750000Y-153250000D01*
D46*
%TO.N,+5V*%
X87250000Y-156250000D02*
X87250000Y-159750000D01*
X88750000Y-154750000D02*
X87250000Y-156250000D01*
X94925000Y-154750000D02*
X88750000Y-154750000D01*
D43*
%TO.N,VBAT1*%
X83000000Y-163000000D02*
X89000000Y-163000000D01*
X60750000Y-163000000D02*
X83000000Y-163000000D01*
D44*
%TO.N,+5V*%
X83225000Y-159775000D02*
X83225000Y-159975000D01*
X84250000Y-161000000D02*
X86500000Y-161000000D01*
X83225000Y-159975000D02*
X84250000Y-161000000D01*
X83750000Y-161000000D02*
X84250000Y-161000000D01*
X82250000Y-161000000D02*
X83750000Y-161000000D01*
X81750000Y-161000000D02*
X82250000Y-161000000D01*
X83225000Y-159775000D02*
X83225000Y-160475000D01*
X83225000Y-159775000D02*
X83225000Y-160025000D01*
X83225000Y-156000000D02*
X83225000Y-159775000D01*
X83225000Y-160025000D02*
X82250000Y-161000000D01*
X83225000Y-160475000D02*
X83750000Y-161000000D01*
D46*
X87250000Y-160250000D02*
X88000000Y-161000000D01*
D44*
X87250000Y-161000000D02*
X88000000Y-161000000D01*
X88000000Y-161000000D02*
X89500000Y-161000000D01*
D46*
X87250000Y-160250000D02*
X86500000Y-161000000D01*
X87250000Y-159750000D02*
X87250000Y-160250000D01*
D44*
X86500000Y-161000000D02*
X87250000Y-161000000D01*
D46*
X87250000Y-159750000D02*
X87250000Y-161000000D01*
D44*
X141375000Y-159375000D02*
X126375000Y-159375000D01*
X94750000Y-166250000D02*
X96000000Y-167500000D01*
X89500000Y-161000000D02*
X94750000Y-166250000D01*
D43*
%TO.N,PD3{slash}INT1*%
X89750000Y-168750000D02*
X90250000Y-169250000D01*
X89750000Y-169250000D02*
X90250000Y-169250000D01*
X90250000Y-169250000D02*
X103500000Y-169250000D01*
X89750000Y-168750000D02*
X89250000Y-169250000D01*
X87775000Y-169250000D02*
X89250000Y-169250000D01*
X89750000Y-168750000D02*
X89750000Y-169250000D01*
X89750000Y-167500000D02*
X89750000Y-168750000D01*
X89250000Y-169250000D02*
X89750000Y-169250000D01*
X89250000Y-167000000D02*
X89750000Y-167500000D01*
X87825000Y-167000000D02*
X89250000Y-167000000D01*
X103500000Y-169250000D02*
X105250000Y-167500000D01*
%TO.N,VBAT4*%
X130000000Y-132750000D02*
X126750000Y-136000000D01*
X122250000Y-140500000D02*
X117250000Y-145500000D01*
%TO.N,VBAT3*%
X97500000Y-163500000D02*
X101250000Y-163500000D01*
X102750000Y-162000000D02*
X103450000Y-162000000D01*
X96000000Y-162000000D02*
X97500000Y-163500000D01*
X101250000Y-163500000D02*
X102750000Y-162000000D01*
X100750000Y-135750000D02*
X97750000Y-135750000D01*
X103750000Y-135750000D02*
X100750000Y-135750000D01*
X107500000Y-132000000D02*
X103750000Y-135750000D01*
%TO.N,MOSFET2*%
X101250000Y-133325000D02*
X101250000Y-134500000D01*
%TO.N,VBAT3*%
X111850000Y-127650000D02*
X107500000Y-132000000D01*
X111850000Y-110950000D02*
X111850000Y-127650000D01*
%TO.N,PB5*%
X102000000Y-149500000D02*
X102000000Y-154950000D01*
X104250000Y-147250000D02*
X102000000Y-149500000D01*
X113250000Y-147250000D02*
X104250000Y-147250000D01*
X114250000Y-146250000D02*
X113250000Y-147250000D01*
X120000000Y-137500000D02*
X114250000Y-143250000D01*
X155000000Y-140500000D02*
X152000000Y-137500000D01*
X155000000Y-157250000D02*
X155000000Y-140500000D01*
X114250000Y-143250000D02*
X114250000Y-146250000D01*
X153250000Y-159000000D02*
X155000000Y-157250000D01*
X147000000Y-159000000D02*
X153250000Y-159000000D01*
X145500000Y-157500000D02*
X147000000Y-159000000D01*
X146460000Y-152540000D02*
X145500000Y-153500000D01*
X152000000Y-137500000D02*
X120000000Y-137500000D01*
X147997500Y-152540000D02*
X146460000Y-152540000D01*
X145500000Y-153500000D02*
X145500000Y-157500000D01*
%TO.N,MOSFET3*%
X112500000Y-145500000D02*
X112500000Y-142500000D01*
X112500000Y-142500000D02*
X114250000Y-140750000D01*
%TO.N,MOSFET2*%
X100250000Y-146250000D02*
X101750000Y-147750000D01*
X100250000Y-142250000D02*
X100250000Y-146250000D01*
X101250000Y-138500000D02*
X101250000Y-141250000D01*
X101250000Y-141250000D02*
X100250000Y-142250000D01*
D46*
%TO.N,+3V3*%
X84000000Y-137250000D02*
X83225000Y-138025000D01*
X83225000Y-138025000D02*
X83225000Y-140250000D01*
X103500000Y-137250000D02*
X84000000Y-137250000D01*
X105040000Y-145409500D02*
X105040000Y-138790000D01*
X105040000Y-138790000D02*
X103500000Y-137250000D01*
D43*
%TO.N,MOSFET2*%
X105050000Y-151050000D02*
X105000000Y-151000000D01*
X105050000Y-153500000D02*
X105050000Y-151050000D01*
%TO.N,PB3*%
X147997500Y-143247500D02*
X147997500Y-144920000D01*
X130750000Y-140500000D02*
X145250000Y-140500000D01*
X121500000Y-149750000D02*
X130750000Y-140500000D01*
X103750000Y-150750000D02*
X104750000Y-149750000D01*
X103750000Y-151250000D02*
X103750000Y-150750000D01*
X104750000Y-149750000D02*
X121500000Y-149750000D01*
X145250000Y-140500000D02*
X147997500Y-143247500D01*
X104250000Y-151750000D02*
X103750000Y-151250000D01*
X104250000Y-153500000D02*
X104250000Y-151750000D01*
%TO.N,VBAT2*%
X85750000Y-130950000D02*
X85750000Y-135750000D01*
X86200000Y-130500000D02*
X85750000Y-130950000D01*
X88850000Y-127850000D02*
X86200000Y-130500000D01*
%TO.N,MOSFET3*%
X123500000Y-136000000D02*
X119000000Y-136000000D01*
X124250000Y-135250000D02*
X123500000Y-136000000D01*
X124250000Y-133325000D02*
X124250000Y-135250000D01*
X119000000Y-136000000D02*
X114250000Y-140750000D01*
D46*
%TO.N,GND*%
X126275000Y-169500000D02*
X127500000Y-169500000D01*
X86225000Y-169250000D02*
X85000000Y-169250000D01*
D43*
%TO.N,RESET*%
X106250000Y-165750000D02*
X106650000Y-166150000D01*
X106650000Y-165850000D02*
X106650000Y-166150000D01*
X106600000Y-165400000D02*
X106650000Y-165400000D01*
X106650000Y-165400000D02*
X106650000Y-165850000D01*
X106650000Y-162000000D02*
X106650000Y-165400000D01*
X106250000Y-165750000D02*
X106550000Y-165750000D01*
X104325000Y-165750000D02*
X106250000Y-165750000D01*
X106250000Y-165750000D02*
X106600000Y-165400000D01*
X106550000Y-165750000D02*
X106650000Y-165850000D01*
%TO.N,PD3{slash}INT1*%
X110500000Y-160550000D02*
X110500000Y-162250000D01*
%TO.N,Net-(R8-Pad1)*%
X83000000Y-167000000D02*
X86175000Y-167000000D01*
%TO.N,PD2{slash}INT0*%
X122250000Y-167000000D02*
X121500000Y-167000000D01*
X122750000Y-167500000D02*
X122250000Y-167000000D01*
X122750000Y-167000000D02*
X122250000Y-167000000D01*
X124675000Y-167000000D02*
X123250000Y-167000000D01*
X123250000Y-167000000D02*
X122750000Y-167000000D01*
X122750000Y-167500000D02*
X122750000Y-169000000D01*
X122750000Y-167000000D02*
X122750000Y-167500000D01*
X122750000Y-167500000D02*
X123250000Y-167000000D01*
X123250000Y-169500000D02*
X124725000Y-169500000D01*
X122750000Y-169000000D02*
X123250000Y-169500000D01*
%TO.N,Net-(R7-Pad1)*%
X126325000Y-167000000D02*
X129500000Y-167000000D01*
%TO.N,PD2{slash}INT0*%
X121500000Y-167000000D02*
X118500000Y-164000000D01*
X110000000Y-164000000D02*
X118500000Y-164000000D01*
%TO.N,/RX*%
X145875000Y-174625000D02*
X145875000Y-168055000D01*
X144000000Y-176500000D02*
X145875000Y-174625000D01*
X108000000Y-170000000D02*
X114500000Y-176500000D01*
X114500000Y-176500000D02*
X144000000Y-176500000D01*
X107450000Y-164450000D02*
X108000000Y-165000000D01*
X108000000Y-165000000D02*
X108000000Y-170000000D01*
X107450000Y-162000000D02*
X107450000Y-164450000D01*
%TO.N,MOSFET1*%
X108000000Y-174000000D02*
X104750000Y-177250000D01*
X68750000Y-177250000D02*
X104000000Y-177250000D01*
X114750000Y-167250000D02*
X112000000Y-170000000D01*
X104750000Y-177250000D02*
X104000000Y-177250000D01*
X114750000Y-165250000D02*
X114750000Y-167250000D01*
X114750000Y-162000000D02*
X114750000Y-162750000D01*
%TO.N,/TX*%
X144350000Y-171000000D02*
X144350000Y-167040000D01*
X144650000Y-171300000D02*
X144350000Y-171000000D01*
X144650000Y-173100000D02*
X144650000Y-171300000D01*
X142422199Y-175327801D02*
X144650000Y-173100000D01*
X109375000Y-169375000D02*
X112000000Y-172000000D01*
X112000000Y-172000000D02*
X123750000Y-172000000D01*
X127077801Y-175327801D02*
X142422199Y-175327801D01*
X109375000Y-164625000D02*
X109375000Y-169375000D01*
X144350000Y-167040000D02*
X145875000Y-165515000D01*
X108250000Y-162000000D02*
X108250000Y-163500000D01*
X108250000Y-163500000D02*
X109375000Y-164625000D01*
X123750000Y-172000000D02*
X127077801Y-175327801D01*
%TO.N,VBAT4*%
X134850000Y-127900000D02*
X130000000Y-132750000D01*
X134850000Y-111200000D02*
X134850000Y-127900000D01*
D44*
X137550000Y-111200000D02*
X140750000Y-108000000D01*
X134850000Y-111200000D02*
X137550000Y-111200000D01*
X140750000Y-108000000D02*
X140750000Y-104000000D01*
%TO.N,VBAT3*%
X111850000Y-110950000D02*
X114300000Y-110950000D01*
X117750000Y-107500000D02*
X117750000Y-104000000D01*
X114300000Y-110950000D02*
X117750000Y-107500000D01*
D43*
%TO.N,PD2{slash}INT0*%
X109050000Y-163050000D02*
X110000000Y-164000000D01*
X109050000Y-162000000D02*
X109050000Y-163050000D01*
%TO.N,MOSFET1*%
X114750000Y-162000000D02*
X113250000Y-160500000D01*
X113250000Y-160500000D02*
X112500000Y-160500000D01*
X112500000Y-160500000D02*
X111750000Y-159750000D01*
X111750000Y-159750000D02*
X110500000Y-159750000D01*
X66000000Y-174500000D02*
X68750000Y-177250000D01*
X75500000Y-154750000D02*
X71500000Y-158750000D01*
X66000000Y-164250000D02*
X66000000Y-174500000D01*
X75500000Y-138000000D02*
X75500000Y-154750000D01*
X78250000Y-135250000D02*
X75500000Y-138000000D01*
X78250000Y-133325000D02*
X78250000Y-135250000D01*
%TO.N,VBAT1*%
X99250000Y-159750000D02*
X98750000Y-160250000D01*
X102000000Y-159750000D02*
X99250000Y-159750000D01*
D44*
X71750000Y-107500000D02*
X71750000Y-104000000D01*
D43*
X58250000Y-160500000D02*
X58250000Y-155250000D01*
X62000000Y-153750000D02*
X62000000Y-150500000D01*
X59250000Y-154250000D02*
X61500000Y-154250000D01*
D44*
X68300000Y-110950000D02*
X71750000Y-107500000D01*
D43*
X58250000Y-155250000D02*
X59250000Y-154250000D01*
X61500000Y-154250000D02*
X62000000Y-153750000D01*
X60750000Y-163000000D02*
X58250000Y-160500000D01*
D44*
X65850000Y-110950000D02*
X68300000Y-110950000D01*
D46*
%TO.N,GND*%
X122250000Y-133325000D02*
X122250000Y-134500000D01*
X99250000Y-133325000D02*
X99250000Y-134500000D01*
D45*
X110500000Y-158950000D02*
X112400000Y-158950000D01*
D46*
X114000000Y-159275000D02*
X115225000Y-159275000D01*
X95725000Y-151750000D02*
X94500000Y-151750000D01*
D45*
X64887500Y-144500000D02*
X66750000Y-144500000D01*
X112400000Y-158950000D02*
X112725000Y-159275000D01*
D43*
X116250000Y-155350000D02*
X114750000Y-155350000D01*
D46*
X98250000Y-158525000D02*
X97025000Y-158525000D01*
X145250000Y-133325000D02*
X145250000Y-134500000D01*
D45*
X100850000Y-158150000D02*
X102000000Y-158150000D01*
X100475000Y-158525000D02*
X100850000Y-158150000D01*
D46*
X76250000Y-133325000D02*
X76250000Y-134500000D01*
D45*
X114000000Y-159275000D02*
X112725000Y-159275000D01*
D46*
X71575000Y-138500000D02*
X72750000Y-138500000D01*
D45*
X97025000Y-158525000D02*
X97000000Y-158500000D01*
X98250000Y-158525000D02*
X100475000Y-158525000D01*
D46*
X115225000Y-159275000D02*
X115250000Y-159250000D01*
D44*
%TO.N,VBAT2*%
X88850000Y-110950000D02*
X91300000Y-110950000D01*
D43*
X88850000Y-127850000D02*
X88850000Y-110950000D01*
D44*
X91300000Y-110950000D02*
X94750000Y-107500000D01*
X94750000Y-107500000D02*
X94750000Y-104000000D01*
D46*
%TO.N,+5V*%
X71575000Y-141000000D02*
X72500000Y-141000000D01*
D45*
X112300000Y-158150000D02*
X112725000Y-157725000D01*
D46*
X72500000Y-141000000D02*
X73000000Y-141500000D01*
X72250000Y-153000000D02*
X69750000Y-153000000D01*
D45*
X110500000Y-158150000D02*
X112300000Y-158150000D01*
D44*
X65725000Y-159725000D02*
X67000000Y-161000000D01*
X67000000Y-161000000D02*
X81750000Y-161000000D01*
D46*
X73000000Y-152250000D02*
X72250000Y-153000000D01*
D44*
X65725000Y-157000000D02*
X65725000Y-159725000D01*
D46*
X73000000Y-141500000D02*
X73000000Y-152250000D01*
D45*
X114000000Y-157725000D02*
X112725000Y-157725000D01*
D46*
%TO.N,Net-(Q2-Pad2)*%
X123250000Y-109770000D02*
X123250000Y-98002000D01*
X123250000Y-98002000D02*
X124550000Y-96702000D01*
%TO.N,Net-(Q3-Pad2)*%
X100250000Y-98002000D02*
X101550000Y-96702000D01*
X100250000Y-109770000D02*
X100250000Y-98002000D01*
D43*
%TO.N,/BUZZER*%
X111750000Y-152250000D02*
X127000000Y-152250000D01*
X110500000Y-153500000D02*
X111750000Y-152250000D01*
X132479216Y-146770784D02*
X132479216Y-144750000D01*
X109050000Y-153500000D02*
X110500000Y-153500000D01*
X127000000Y-152250000D02*
X132479216Y-146770784D01*
D46*
%TO.N,Net-(C2-Pad1)*%
X98075000Y-154750000D02*
X99500000Y-154750000D01*
X98075000Y-154750000D02*
X98075000Y-153425000D01*
X99500000Y-154750000D02*
X100500000Y-155750000D01*
X97275000Y-152625000D02*
X98075000Y-153425000D01*
X97275000Y-151750000D02*
X97275000Y-152625000D01*
D45*
X100500000Y-155750000D02*
X102000000Y-155750000D01*
D43*
%TO.N,Net-(Q1-Pad1)*%
X76750000Y-130250000D02*
X77750000Y-130250000D01*
X78250000Y-130250000D02*
X78750000Y-130250000D01*
X76250000Y-131675000D02*
X76250000Y-130750000D01*
X82250000Y-130250000D02*
X78750000Y-130250000D01*
X81250000Y-109750000D02*
X83000000Y-111500000D01*
X78250000Y-130750000D02*
X78250000Y-130250000D01*
X83000000Y-129500000D02*
X82250000Y-130250000D01*
X78250000Y-130750000D02*
X77750000Y-130250000D01*
X77750000Y-130250000D02*
X78250000Y-130250000D01*
X76250000Y-130750000D02*
X76750000Y-130250000D01*
X83000000Y-111500000D02*
X83000000Y-129500000D01*
X78250000Y-130750000D02*
X78750000Y-130250000D01*
X78250000Y-131675000D02*
X78250000Y-130750000D01*
X79790000Y-109750000D02*
X81250000Y-109750000D01*
D46*
%TO.N,Net-(Q1-Pad2)*%
X77250000Y-98002000D02*
X78550000Y-96702000D01*
X77250000Y-109750000D02*
X77250000Y-98002000D01*
D43*
%TO.N,Net-(Q2-Pad1)*%
X129000000Y-129520000D02*
X128250000Y-130270000D01*
X122250000Y-130770000D02*
X122750000Y-130270000D01*
X128250000Y-130270000D02*
X124750000Y-130270000D01*
X129000000Y-111520000D02*
X129000000Y-129520000D01*
X122750000Y-130270000D02*
X123750000Y-130270000D01*
X123750000Y-130270000D02*
X124250000Y-130270000D01*
X125790000Y-109770000D02*
X127250000Y-109770000D01*
X127250000Y-109770000D02*
X129000000Y-111520000D01*
X124250000Y-130270000D02*
X124750000Y-130270000D01*
X124250000Y-130770000D02*
X124750000Y-130270000D01*
X124250000Y-130770000D02*
X123750000Y-130270000D01*
X124250000Y-130770000D02*
X124250000Y-130270000D01*
X122250000Y-131695000D02*
X122250000Y-130770000D01*
X124250000Y-131695000D02*
X124250000Y-130770000D01*
D45*
%TO.N,/AREF*%
X100475000Y-156975000D02*
X100850000Y-157350000D01*
X100850000Y-157350000D02*
X102000000Y-157350000D01*
X98250000Y-156975000D02*
X100475000Y-156975000D01*
D43*
%TO.N,Net-(Q3-Pad1)*%
X102790000Y-109770000D02*
X104250000Y-109770000D01*
X101250000Y-131695000D02*
X101250000Y-130770000D01*
X104250000Y-109770000D02*
X106000000Y-111520000D01*
X99750000Y-130270000D02*
X100750000Y-130270000D01*
X106000000Y-111520000D02*
X106000000Y-129520000D01*
X106000000Y-129520000D02*
X105250000Y-130270000D01*
X99250000Y-131695000D02*
X99250000Y-130770000D01*
X100750000Y-130270000D02*
X101250000Y-130270000D01*
X101250000Y-130270000D02*
X101750000Y-130270000D01*
X101250000Y-130770000D02*
X101750000Y-130270000D01*
X99250000Y-130770000D02*
X99750000Y-130270000D01*
X101250000Y-130770000D02*
X100750000Y-130270000D01*
X101250000Y-130770000D02*
X101250000Y-130270000D01*
X105250000Y-130270000D02*
X101750000Y-130270000D01*
%TO.N,Net-(Q4-Pad1)*%
X146750000Y-130270000D02*
X147250000Y-130270000D01*
X152000000Y-129520000D02*
X151250000Y-130270000D01*
X145250000Y-130770000D02*
X145750000Y-130270000D01*
X151250000Y-130270000D02*
X147750000Y-130270000D01*
X147250000Y-130270000D02*
X147750000Y-130270000D01*
X145250000Y-131695000D02*
X145250000Y-130770000D01*
X147250000Y-130770000D02*
X146750000Y-130270000D01*
X147250000Y-131695000D02*
X147250000Y-130770000D01*
X147250000Y-130770000D02*
X147250000Y-130270000D01*
X147250000Y-130770000D02*
X147750000Y-130270000D01*
X152000000Y-111520000D02*
X152000000Y-129520000D01*
X150250000Y-109770000D02*
X152000000Y-111520000D01*
X148790000Y-109770000D02*
X150250000Y-109770000D01*
X145750000Y-130270000D02*
X146750000Y-130270000D01*
D46*
%TO.N,Net-(Q4-Pad2)*%
X146250000Y-109770000D02*
X146250000Y-98002000D01*
X146250000Y-98002000D02*
X147550000Y-96702000D01*
D45*
%TO.N,Net-(R7-Pad1)*%
X129750000Y-167000000D02*
X142250000Y-167000000D01*
%TO.N,Net-(R8-Pad1)*%
X70500000Y-167000000D02*
X83000000Y-167000000D01*
D43*
%TO.N,/FB*%
X68500000Y-141000000D02*
X68250000Y-141000000D01*
X68250000Y-141500000D02*
X68250000Y-141250000D01*
X65250000Y-142250000D02*
X67500000Y-142250000D01*
X68250000Y-140750000D02*
X68250000Y-139000000D01*
X69925000Y-138500000D02*
X68750000Y-138500000D01*
X64887500Y-143550000D02*
X64887500Y-142612500D01*
X69925000Y-141000000D02*
X68500000Y-141000000D01*
X68750000Y-138500000D02*
X68250000Y-139000000D01*
X68500000Y-141000000D02*
X68250000Y-140750000D01*
X64887500Y-142612500D02*
X65250000Y-142250000D01*
X67500000Y-142250000D02*
X68250000Y-141500000D01*
X68500000Y-141000000D02*
X68250000Y-141250000D01*
X68250000Y-141250000D02*
X68250000Y-141000000D01*
X68250000Y-141000000D02*
X68250000Y-140750000D01*
D45*
%TO.N,Net-(U1-Pad7)*%
X112250000Y-155750000D02*
X110500000Y-155750000D01*
X116250000Y-156300000D02*
X112800000Y-156300000D01*
X112800000Y-156300000D02*
X112250000Y-155750000D01*
%TO.N,Net-(U1-Pad8)*%
X112300000Y-154950000D02*
X110500000Y-154950000D01*
X116250000Y-154400000D02*
X112850000Y-154400000D01*
X112850000Y-154400000D02*
X112300000Y-154950000D01*
D43*
%TO.N,MOSFET3*%
X107450000Y-153500000D02*
X107450000Y-151300000D01*
X107450000Y-151300000D02*
X107500000Y-151250000D01*
%TO.N,MOSFET4*%
X109250000Y-151250000D02*
X122500000Y-151250000D01*
X147250000Y-134500000D02*
X147250000Y-133325000D01*
X132000000Y-141750000D02*
X142750000Y-141750000D01*
X108250000Y-153500000D02*
X108250000Y-152250000D01*
X108250000Y-152250000D02*
X109250000Y-151250000D01*
X122500000Y-151250000D02*
X132000000Y-141750000D01*
%TD*%
%TA.AperFunction,Conductor*%
%TO.N,/L_OUT*%
G36*
X65516501Y-145303465D02*
G01*
X65582095Y-145303650D01*
X65635351Y-145335351D01*
X65713095Y-145413095D01*
X65747121Y-145475407D01*
X65750000Y-145502190D01*
X65750000Y-145750000D01*
X69024937Y-145750000D01*
X69073155Y-145759591D01*
X69368268Y-145881831D01*
X69409145Y-145909145D01*
X70340855Y-146840855D01*
X70368169Y-146881732D01*
X70490409Y-147176845D01*
X70500000Y-147225063D01*
X70500000Y-149747810D01*
X70479998Y-149815931D01*
X70463095Y-149836905D01*
X70336905Y-149963095D01*
X70274593Y-149997121D01*
X70247810Y-150000000D01*
X66750000Y-150000000D01*
X66750000Y-152247810D01*
X66729998Y-152315931D01*
X66713095Y-152336905D01*
X66586905Y-152463095D01*
X66524593Y-152497121D01*
X66497810Y-152500000D01*
X65752190Y-152500000D01*
X65684069Y-152479998D01*
X65663095Y-152463095D01*
X65536905Y-152336905D01*
X65502879Y-152274593D01*
X65500000Y-152247810D01*
X65500000Y-147500000D01*
X64409145Y-146409145D01*
X64381831Y-146368268D01*
X64259591Y-146073155D01*
X64250000Y-146024937D01*
X64250000Y-145502190D01*
X64270002Y-145434069D01*
X64286905Y-145413095D01*
X64354595Y-145345405D01*
X64416907Y-145311379D01*
X64443690Y-145308500D01*
X65466502Y-145308500D01*
X65468950Y-145308307D01*
X65468958Y-145308307D01*
X65497421Y-145306067D01*
X65497426Y-145306066D01*
X65503831Y-145305562D01*
X65511101Y-145303450D01*
X65511736Y-145303452D01*
X65516345Y-145302610D01*
X65516501Y-145303465D01*
G37*
%TD.AperFunction*%
%TD*%
%TA.AperFunction,Conductor*%
%TO.N,+5V*%
G36*
X70315931Y-152020002D02*
G01*
X70336905Y-152036905D01*
X70463095Y-152163095D01*
X70497121Y-152225407D01*
X70500000Y-152252190D01*
X70500000Y-156774937D01*
X70490409Y-156823155D01*
X70368169Y-157118268D01*
X70340855Y-157159145D01*
X69409145Y-158090855D01*
X69368268Y-158118169D01*
X69073155Y-158240409D01*
X69024937Y-158250000D01*
X65502190Y-158250000D01*
X65434069Y-158229998D01*
X65413095Y-158213095D01*
X65286905Y-158086905D01*
X65252879Y-158024593D01*
X65250000Y-157997810D01*
X65250000Y-156002190D01*
X65270002Y-155934069D01*
X65286905Y-155913095D01*
X65413095Y-155786905D01*
X65475407Y-155752879D01*
X65502190Y-155750000D01*
X67750000Y-155750000D01*
X69000000Y-154500000D01*
X69000000Y-152252190D01*
X69020002Y-152184069D01*
X69036905Y-152163095D01*
X69163095Y-152036905D01*
X69225407Y-152002879D01*
X69252190Y-152000000D01*
X70247810Y-152000000D01*
X70315931Y-152020002D01*
G37*
%TD.AperFunction*%
%TD*%
%TA.AperFunction,Conductor*%
%TO.N,GND*%
G36*
X70315931Y-143020002D02*
G01*
X70336905Y-143036905D01*
X70463095Y-143163095D01*
X70497121Y-143225407D01*
X70500000Y-143252190D01*
X70500000Y-144997810D01*
X70479998Y-145065931D01*
X70463095Y-145086905D01*
X70336905Y-145213095D01*
X70274593Y-145247121D01*
X70247810Y-145250000D01*
X69155793Y-145250000D01*
X69131214Y-145247579D01*
X69125114Y-145246366D01*
X69024937Y-145236500D01*
X66276492Y-145236500D01*
X66208371Y-145216498D01*
X66169067Y-145174280D01*
X66168369Y-145174729D01*
X66165936Y-145170943D01*
X66163780Y-145166995D01*
X66157624Y-145158771D01*
X66078891Y-145053598D01*
X66078887Y-145053594D01*
X66076194Y-145049996D01*
X65998450Y-144972252D01*
X65966890Y-144947699D01*
X65935807Y-144912391D01*
X65928489Y-144900016D01*
X65928485Y-144900011D01*
X65924453Y-144893193D01*
X65806807Y-144775547D01*
X65799983Y-144771511D01*
X65799980Y-144771509D01*
X65670427Y-144694892D01*
X65670428Y-144694892D01*
X65663601Y-144690855D01*
X65655990Y-144688644D01*
X65655988Y-144688643D01*
X65603769Y-144673472D01*
X65503831Y-144644438D01*
X65497426Y-144643934D01*
X65497421Y-144643933D01*
X65468958Y-144641693D01*
X65468950Y-144641693D01*
X65466502Y-144641500D01*
X64393690Y-144641500D01*
X64325569Y-144621498D01*
X64304595Y-144604595D01*
X64286905Y-144586905D01*
X64252879Y-144524593D01*
X64250000Y-144497810D01*
X64250000Y-144484500D01*
X64270002Y-144416379D01*
X64323658Y-144369886D01*
X64376000Y-144358500D01*
X65466502Y-144358500D01*
X65468950Y-144358307D01*
X65468958Y-144358307D01*
X65497421Y-144356067D01*
X65497426Y-144356066D01*
X65503831Y-144355562D01*
X65603769Y-144326528D01*
X65655988Y-144311357D01*
X65655990Y-144311356D01*
X65663601Y-144309145D01*
X65692411Y-144292107D01*
X65799980Y-144228491D01*
X65799983Y-144228489D01*
X65806807Y-144224453D01*
X65924453Y-144106807D01*
X65928489Y-144099983D01*
X65928491Y-144099980D01*
X66005108Y-143970427D01*
X66009145Y-143963601D01*
X66055562Y-143803831D01*
X66058500Y-143766502D01*
X66058500Y-143333498D01*
X66055562Y-143296169D01*
X66053767Y-143289989D01*
X66016337Y-143161152D01*
X66016540Y-143090156D01*
X66055094Y-143030540D01*
X66119759Y-143001232D01*
X66137334Y-143000000D01*
X70247810Y-143000000D01*
X70315931Y-143020002D01*
G37*
%TD.AperFunction*%
%TD*%
%TA.AperFunction,Conductor*%
%TO.N,VBAT1*%
G36*
X67565931Y-109020002D02*
G01*
X67586905Y-109036905D01*
X67713095Y-109163095D01*
X67747121Y-109225407D01*
X67750000Y-109252190D01*
X67750000Y-112747810D01*
X67729998Y-112815931D01*
X67713095Y-112836905D01*
X67586905Y-112963095D01*
X67524593Y-112997121D01*
X67497810Y-113000000D01*
X61000000Y-113000000D01*
X61000000Y-138250000D01*
X61500000Y-138750000D01*
X62497810Y-138750000D01*
X62565931Y-138770002D01*
X62586905Y-138786905D01*
X62713095Y-138913095D01*
X62747121Y-138975407D01*
X62750000Y-139002190D01*
X62750000Y-140997810D01*
X62729998Y-141065931D01*
X62713095Y-141086905D01*
X62586905Y-141213095D01*
X62524593Y-141247121D01*
X62497810Y-141250000D01*
X61500000Y-141250000D01*
X61000000Y-141750000D01*
X61000000Y-142500000D01*
X61500000Y-143000000D01*
X62997810Y-143000000D01*
X63065931Y-143020002D01*
X63086905Y-143036905D01*
X63213095Y-143163095D01*
X63247121Y-143225407D01*
X63250000Y-143252190D01*
X63250000Y-144497810D01*
X63229998Y-144565931D01*
X63213095Y-144586905D01*
X63195405Y-144604595D01*
X63133093Y-144638621D01*
X63106310Y-144641500D01*
X62033498Y-144641500D01*
X62031050Y-144641693D01*
X62031042Y-144641693D01*
X62002579Y-144643933D01*
X62002574Y-144643934D01*
X61996169Y-144644438D01*
X61896231Y-144673472D01*
X61844012Y-144688643D01*
X61844010Y-144688644D01*
X61836399Y-144690855D01*
X61829571Y-144694893D01*
X61766060Y-144732453D01*
X61723868Y-144743996D01*
X61724581Y-144747579D01*
X61712410Y-144750000D01*
X61500000Y-144750000D01*
X61000000Y-145250000D01*
X61000000Y-148000000D01*
X61997810Y-148000000D01*
X62065931Y-148020002D01*
X62086905Y-148036905D01*
X62213095Y-148163095D01*
X62247121Y-148225407D01*
X62250000Y-148252190D01*
X62250000Y-152747810D01*
X62229998Y-152815931D01*
X62213095Y-152836905D01*
X62086905Y-152963095D01*
X62024593Y-152997121D01*
X61997810Y-153000000D01*
X59225063Y-153000000D01*
X59176845Y-152990409D01*
X58881732Y-152868169D01*
X58840855Y-152840855D01*
X57909145Y-151909145D01*
X57881831Y-151868268D01*
X57759591Y-151573155D01*
X57750000Y-151524937D01*
X57750000Y-110475063D01*
X57759591Y-110426845D01*
X57881831Y-110131732D01*
X57909145Y-110090855D01*
X58840855Y-109159145D01*
X58881732Y-109131831D01*
X59176845Y-109009591D01*
X59225063Y-109000000D01*
X67497810Y-109000000D01*
X67565931Y-109020002D01*
G37*
%TD.AperFunction*%
%TD*%
%TA.AperFunction,Conductor*%
%TO.N,GND*%
G36*
X67065931Y-136520002D02*
G01*
X67086905Y-136536905D01*
X67213095Y-136663095D01*
X67247121Y-136725407D01*
X67250000Y-136752190D01*
X67250000Y-141247810D01*
X67229998Y-141315931D01*
X67213095Y-141336905D01*
X67086905Y-141463095D01*
X67024593Y-141497121D01*
X66997810Y-141500000D01*
X65002190Y-141500000D01*
X64934069Y-141479998D01*
X64913095Y-141463095D01*
X64786905Y-141336905D01*
X64752879Y-141274593D01*
X64750000Y-141247810D01*
X64750000Y-138500000D01*
X64502190Y-138500000D01*
X64434069Y-138479998D01*
X64413095Y-138463095D01*
X64286905Y-138336905D01*
X64252879Y-138274593D01*
X64250000Y-138247810D01*
X64250000Y-136752190D01*
X64270002Y-136684069D01*
X64286905Y-136663095D01*
X64413095Y-136536905D01*
X64475407Y-136502879D01*
X64502190Y-136500000D01*
X66997810Y-136500000D01*
X67065931Y-136520002D01*
G37*
%TD.AperFunction*%
%TD*%
%TA.AperFunction,Conductor*%
%TO.N,+5V*%
G36*
X84692121Y-150270002D02*
G01*
X84738614Y-150323658D01*
X84750000Y-150376000D01*
X84750000Y-156197810D01*
X84729998Y-156265931D01*
X84713095Y-156286905D01*
X83786905Y-157213095D01*
X83724593Y-157247121D01*
X83697810Y-157250000D01*
X82876000Y-157250000D01*
X82807879Y-157229998D01*
X82761386Y-157176342D01*
X82750000Y-157124000D01*
X82750000Y-154802190D01*
X82770002Y-154734069D01*
X82786905Y-154713095D01*
X83500000Y-154000000D01*
X83500000Y-150376000D01*
X83520002Y-150307879D01*
X83573658Y-150261386D01*
X83626000Y-150250000D01*
X84624000Y-150250000D01*
X84692121Y-150270002D01*
G37*
%TD.AperFunction*%
%TD*%
%TA.AperFunction,Conductor*%
%TO.N,+3V3*%
G36*
X84073155Y-139009591D02*
G01*
X84368268Y-139131831D01*
X84409145Y-139159145D01*
X84840855Y-139590855D01*
X84868169Y-139631732D01*
X84990409Y-139926845D01*
X85000000Y-139975063D01*
X85000000Y-144764206D01*
X84981182Y-144830448D01*
X84839933Y-145058994D01*
X84789101Y-145105449D01*
X83900000Y-145550000D01*
X82678885Y-146160557D01*
X82678885Y-146160558D01*
X82500000Y-146250000D01*
X82500000Y-151747810D01*
X82479998Y-151815931D01*
X82463095Y-151836905D01*
X82336905Y-151963095D01*
X82274593Y-151997121D01*
X82247810Y-152000000D01*
X81252190Y-152000000D01*
X81184069Y-151979998D01*
X81163095Y-151963095D01*
X81036905Y-151836905D01*
X81002879Y-151774593D01*
X81000000Y-151747810D01*
X81000000Y-146250000D01*
X80821115Y-146160558D01*
X80821115Y-146160557D01*
X80500000Y-146000000D01*
X80210899Y-145855449D01*
X80160067Y-145808994D01*
X80018818Y-145580448D01*
X80000000Y-145514206D01*
X80000000Y-144252190D01*
X80020002Y-144184069D01*
X80036905Y-144163095D01*
X80163095Y-144036905D01*
X80225407Y-144002879D01*
X80252190Y-144000000D01*
X80750000Y-144000000D01*
X82750000Y-142000000D01*
X82750000Y-139252190D01*
X82770002Y-139184069D01*
X82786905Y-139163095D01*
X82913095Y-139036905D01*
X82975407Y-139002879D01*
X83002190Y-139000000D01*
X84024937Y-139000000D01*
X84073155Y-139009591D01*
G37*
%TD.AperFunction*%
%TD*%
%TA.AperFunction,Conductor*%
%TO.N,GND*%
G36*
X79815931Y-150270002D02*
G01*
X79836905Y-150286905D01*
X79963095Y-150413095D01*
X79997121Y-150475407D01*
X80000000Y-150502190D01*
X80000000Y-154000000D01*
X80590855Y-154590855D01*
X80618169Y-154631732D01*
X80740409Y-154926845D01*
X80750000Y-154975063D01*
X80750000Y-157003804D01*
X80729998Y-157071925D01*
X80720140Y-157085247D01*
X80582580Y-157247631D01*
X80523287Y-157286680D01*
X80507154Y-157290474D01*
X79452414Y-157466264D01*
X79442093Y-157467549D01*
X79055183Y-157499571D01*
X79044790Y-157500000D01*
X77752190Y-157500000D01*
X77684069Y-157479998D01*
X77663095Y-157463095D01*
X77536905Y-157336905D01*
X77502879Y-157274593D01*
X77500000Y-157247810D01*
X77500000Y-151725063D01*
X77509591Y-151676845D01*
X77631831Y-151381732D01*
X77659145Y-151340855D01*
X78590855Y-150409145D01*
X78631732Y-150381831D01*
X78926845Y-150259591D01*
X78975063Y-150250000D01*
X79747810Y-150250000D01*
X79815931Y-150270002D01*
G37*
%TD.AperFunction*%
%TD*%
%TA.AperFunction,Conductor*%
%TO.N,GND*%
G36*
X79055183Y-138750429D02*
G01*
X79442093Y-138782451D01*
X79452414Y-138783736D01*
X80507154Y-138959526D01*
X80571060Y-138990455D01*
X80582580Y-139002369D01*
X80720140Y-139164753D01*
X80748910Y-139229659D01*
X80750000Y-139246196D01*
X80750000Y-141253804D01*
X80729998Y-141321925D01*
X80720140Y-141335247D01*
X80582580Y-141497631D01*
X80523287Y-141536680D01*
X80507154Y-141540474D01*
X79452414Y-141716264D01*
X79442093Y-141717549D01*
X79055183Y-141749571D01*
X79044790Y-141750000D01*
X77752190Y-141750000D01*
X77684069Y-141729998D01*
X77663095Y-141713095D01*
X77536905Y-141586905D01*
X77502879Y-141524593D01*
X77500000Y-141497810D01*
X77500000Y-139002190D01*
X77520002Y-138934069D01*
X77536905Y-138913095D01*
X77663095Y-138786905D01*
X77725407Y-138752879D01*
X77752190Y-138750000D01*
X79044790Y-138750000D01*
X79055183Y-138750429D01*
G37*
%TD.AperFunction*%
%TD*%
%TA.AperFunction,Conductor*%
%TO.N,GND*%
G36*
X61555183Y-155500429D02*
G01*
X61942093Y-155532451D01*
X61952414Y-155533736D01*
X63007154Y-155709526D01*
X63071060Y-155740455D01*
X63082580Y-155752369D01*
X63220140Y-155914753D01*
X63248910Y-155979659D01*
X63250000Y-155996196D01*
X63250000Y-158003804D01*
X63229998Y-158071925D01*
X63220140Y-158085247D01*
X63082580Y-158247631D01*
X63023287Y-158286680D01*
X63007154Y-158290474D01*
X61952414Y-158466264D01*
X61942093Y-158467549D01*
X61555183Y-158499571D01*
X61544790Y-158500000D01*
X60252190Y-158500000D01*
X60184069Y-158479998D01*
X60163095Y-158463095D01*
X60036905Y-158336905D01*
X60002879Y-158274593D01*
X60000000Y-158247810D01*
X60000000Y-155752190D01*
X60020002Y-155684069D01*
X60036905Y-155663095D01*
X60163095Y-155536905D01*
X60225407Y-155502879D01*
X60252190Y-155500000D01*
X61544790Y-155500000D01*
X61555183Y-155500429D01*
G37*
%TD.AperFunction*%
%TD*%
M02*
